<?xml version="1.0" encoding="UTF-8"?>
<svg version="1.1" xmlns="http://www.w3.org/2000/svg" width="960" height="1104">
<path d="M0 0 C316.8 0 633.6 0 960 0 C960 364.32 960 728.64 960 1104 C643.2 1104 326.4 1104 0 1104 C0 739.68 0 375.36 0 0 Z " fill="#FEFEFE" transform="translate(0,0)"/>
<path d="M0 0 C36.3 0 72.6 0 110 0 C110.029729 13.5515918 110.029729 13.5515918 110.06005859 27.37695312 C110.1249453 56.32459863 110.19948312 85.27221215 110.28005161 114.21981809 C110.29256962 118.72060118 110.30500253 123.2213845 110.31738281 127.72216797 C110.31984881 128.61814605 110.3223148 129.51412413 110.32485552 130.43725306 C110.36451679 144.921153 110.39729339 159.40506068 110.42749982 173.88898307 C110.45867728 188.76456672 110.49731332 203.6401177 110.54279006 218.51566458 C110.5705909 227.68546215 110.59266011 236.85523598 110.60726251 246.02506423 C110.61785164 252.32376485 110.63572318 258.62241935 110.65916704 264.92108512 C110.67245744 268.54830742 110.6826853 272.17546545 110.68421364 275.80271339 C110.5228185 301.68410296 110.5228185 301.68410296 115.625 326.9375 C115.88297363 327.76886475 116.14094727 328.60022949 116.40673828 329.45678711 C125.09568167 356.40276405 141.00936707 375.78134513 166 389 C192.41066472 401.78832186 226.98735639 401.4878136 254.6328125 392.8671875 C266.63888671 388.58133122 277.46873196 382.4579992 287 374 C288.10408203 373.071875 288.10408203 373.071875 289.23046875 372.125 C310.05594478 353.2530642 318.60006463 320.89018013 320.18918538 293.77151322 C320.26439602 290.53928551 320.28410342 287.3122213 320.2784729 284.07913208 C320.2871615 282.24809191 320.2871615 282.24809191 320.29602563 280.38006103 C320.30995515 277.0367641 320.31524549 273.69366746 320.31667423 270.35035634 C320.32040248 266.72818628 320.3355745 263.10606076 320.34928894 259.48391724 C320.3714591 253.2232117 320.38653365 246.96252222 320.39665604 240.70178604 C320.41130139 231.65004971 320.43685425 222.5983694 320.46498732 213.54666613 C320.51034946 198.85746029 320.54700776 184.16824633 320.578125 169.47900391 C320.60835403 155.21792173 320.64272416 140.95685934 320.68261719 126.69580078 C320.68507874 125.81532822 320.68754028 124.93485566 320.69007643 124.02770211 C320.70245187 119.61020571 320.71490824 115.19270954 320.72740483 110.77521348 C320.83081409 74.18349912 320.91845365 37.5917709 321 1 C356.97 1 392.94 1 430 1 C430.02206623 39.21768906 430.04052241 77.43537208 430.05106533 115.65306569 C430.05231596 120.17015904 430.05361029 124.68725237 430.05493164 129.2043457 C430.05532511 130.55319221 430.05532511 130.55319221 430.05572652 131.92928814 C430.06007187 146.4688413 430.06795317 161.00839047 430.0771528 175.54794127 C430.08652091 190.47886731 430.09206229 205.40979127 430.09408849 220.34072012 C430.09545717 229.54584369 430.09977216 238.75095603 430.10791647 247.95607614 C430.11322291 254.27763742 430.11479546 260.59919294 430.11350138 266.92075629 C430.11286407 270.56202637 430.11380619 274.20327689 430.11920547 277.84454346 C430.14560715 296.57584477 429.80935452 314.7341789 426.8125 333.25 C426.65118088 334.25432068 426.65118088 334.25432068 426.48660278 335.27893066 C424.76009472 345.89636369 422.37534428 356.08003289 418.66259766 366.19287109 C418.08402309 367.77084048 417.54446446 369.36300555 417.01171875 370.95703125 C410.219797 390.91391146 400.13015083 409.04174704 386.99609375 425.49609375 C384.92145147 428.02582469 384.92145147 428.02582469 383 431 C380.16562438 432.04521474 377.47914831 432.12632791 374.47851562 432.12939453 C373.59079468 432.13254669 372.70307373 432.13569885 371.78845215 432.13894653 C370.83732544 432.1369223 369.88619873 432.13489807 368.90625 432.1328125 C367.92257446 432.13376923 366.93889893 432.13472595 365.92541504 432.13571167 C363.84757422 432.13639156 361.76973126 432.13455056 359.69189453 432.13037109 C356.51199573 432.12502019 353.33223816 432.13032255 350.15234375 432.13671875 C348.13281219 432.13605793 346.11328071 432.1347767 344.09375 432.1328125 C342.66705994 432.13584885 342.66705994 432.13584885 341.21154785 432.13894653 C340.3238269 432.13579437 339.43610596 432.13264221 338.52148438 432.12939453 C337.74301147 432.12859894 336.96453857 432.12780334 336.16247559 432.12698364 C333.98156554 431.9989175 332.10948196 431.54672428 330 431 C328.58066277 430.84756227 327.15721366 430.73070748 325.73242188 430.64282227 C324.47830505 430.56252525 324.47830505 430.56252525 323.19885254 430.48060608 C322.2979187 430.42642014 321.39698486 430.37223419 320.46875 430.31640625 C319.52302124 430.25597641 318.57729248 430.19554657 317.60290527 430.13328552 C313.5739833 429.87598967 309.54454836 429.62717554 305.51513672 429.37768555 C292.67521179 428.57717825 279.88800686 427.57399139 267.09429932 426.22055054 C251.68947154 424.59826904 236.35887441 423.80008351 220.875 423.75 C220.15045624 423.74482361 219.42591248 423.73964722 218.67941284 423.73431396 C208.29259854 423.67559222 198.27394373 424.50401988 188 426 C186.98180176 426.13535156 185.96360352 426.27070312 184.91455078 426.41015625 C151.2547137 430.94409716 114.75207315 442.89595494 89 466 C84.43321336 464.500586 81.00783599 461.91618629 77.3125 458.9375 C76.69455566 458.44435303 76.07661133 457.95120605 75.43994141 457.44311523 C70.10899159 453.15469609 64.97422113 448.69918521 60 444 C59.09121094 443.16726563 58.18242187 442.33453125 57.24609375 441.4765625 C19.44733736 406.01554517 1.74201938 351.77363786 0 301 C-0.16802297 291.93843522 -0.12954954 282.87432254 -0.11606562 273.81157577 C-0.11170489 270.1287785 -0.11321149 266.44598272 -0.1139679 262.76318359 C-0.1144896 256.39881021 -0.11137994 250.03444716 -0.10573006 243.67007637 C-0.09756686 234.46851971 -0.09499492 225.26696799 -0.09374207 216.0654081 C-0.09155909 201.13271391 -0.08491952 186.2000252 -0.07543945 171.26733398 C-0.06624578 156.77058947 -0.05917453 142.27384645 -0.05493164 127.77709961 C-0.05466892 126.88195479 -0.05440619 125.98680998 -0.05413551 125.06453956 C-0.05283037 120.57339364 -0.05156669 116.08224771 -0.05032361 111.59110177 C-0.03997449 74.39406296 -0.02154889 37.19703433 0 0 Z " fill="#096431" transform="translate(281,214)"/>
<path d="M0 0 C0 3.58283864 -0.91048353 4.91807722 -2.7109375 7.98828125 C-3.58153809 9.49515503 -3.58153809 9.49515503 -4.46972656 11.0324707 C-5.41283691 12.65608521 -5.41283691 12.65608521 -6.375 14.3125 C-43.75484812 80.07596199 -56.54142645 158.72959065 -42 233 C-41.79133301 234.15016602 -41.58266602 235.30033203 -41.36767578 236.48535156 C-36.14293718 265.14036181 -26.01228253 292.99494362 -13 319 C-12.38608398 320.25006836 -12.38608398 320.25006836 -11.75976562 321.52539062 C-0.21433465 344.93231108 14.71194066 366.49342044 32.62890625 385.4765625 C34.62434827 387.60021249 36.50881789 389.76423171 38.375 392 C76.23065195 435.30186603 138.25099254 461.25934178 194.78857422 465.83007812 C202.20793395 466.22264878 209.63427899 466.24412427 217.0625 466.25 C218.39050125 466.25151062 218.39050125 466.25151062 219.74533081 466.25305176 C234.70795582 466.24158369 249.19879172 465.31489285 264 463 C265.89061826 462.73042145 267.78124321 462.46088988 269.671875 462.19140625 C328.019574 453.3993564 382.00072386 425.46827695 427 388 C428.11848503 387.07030702 429.23697478 386.14061972 430.35546875 385.2109375 C433.24015293 382.81107771 436.12101392 380.40669168 439 378 C438.175 378.47308594 437.35 378.94617188 436.5 379.43359375 C433.34891211 381.23890934 430.19477897 383.03884571 427.03955078 384.83691406 C425.72741064 385.58518263 424.41583983 386.33445089 423.10498047 387.08496094 C419.15214462 389.34639421 415.18394157 391.57783021 411.19873047 393.78173828 C409.71587157 394.60335341 408.23577454 395.42997045 406.75830078 396.26123047 C380.52398182 410.95134332 351.11145616 422.54036281 322 430 C321.09169434 430.2371875 320.18338867 430.474375 319.24755859 430.71875 C246.19104457 449.66435283 166.89514477 449.98403785 100 411 C91.24070796 405.72212389 91.24070796 405.72212389 90 402 C97.78274566 384.97135249 114.76499049 367.75822214 129 356 C129.86882812 355.24332031 130.73765625 354.48664063 131.6328125 353.70703125 C167.91286692 322.50618445 214.0740453 308.50433677 261.44677734 308.73925781 C263.97127955 308.74987916 266.49505173 308.73933473 269.01953125 308.7265625 C287.71684353 308.70833779 306.27171344 310.54446871 324.87109375 312.2890625 C397.96516281 319.38546903 397.96516281 319.38546903 470 308 C471.44450732 307.60123837 472.88986754 307.20555716 474.3359375 306.8125 C482.60434943 304.52963273 490.30754511 301.84095141 498 298 C499.19753906 297.44828125 500.39507813 296.8965625 501.62890625 296.328125 C518.47676556 288.45087796 532.71148524 277.48179611 545.703125 264.24609375 C548 262 548 262 550 261 C549.39897062 267.43036812 548.34211232 273.54168465 546.8125 279.8125 C546.59255371 280.72193359 546.37260742 281.63136719 546.14599609 282.56835938 C543.78191893 292.15720213 540.97563111 301.58568736 538 311 C537.73993164 311.83998535 537.47986328 312.6799707 537.21191406 313.54541016 C518.00096482 375.37550934 478.97581481 437.43632007 427 477 C425.71648619 478.01049838 424.43401794 479.02232559 423.15234375 480.03515625 C382.79451859 511.69468971 335.63315308 532.68409539 284.72119141 539.62548828 C282.34430365 539.95261423 279.97556084 540.31117442 277.60546875 540.68359375 C236.79090637 546.72323958 191.17787427 539.082617 153 524 C152.05253906 523.649375 151.10507812 523.29875 150.12890625 522.9375 C112.14419649 508.45070945 77.16689377 486.81391785 47.37109375 459.1875 C45.30543787 457.28178782 43.20267421 455.4456799 41.0625 453.625 C33.42182926 446.97478657 26.22644199 439.66852587 19.67578125 431.9453125 C18.51691226 430.60005199 17.32403706 429.28361866 16.10546875 427.9921875 C-1.36984551 409.38211258 -15.50823851 387.17978178 -28 365 C-28.37721191 364.33742188 -28.75442383 363.67484375 -29.14306641 362.9921875 C-35.69646736 351.40229765 -40.87440739 339.32941561 -45.81103516 326.97509766 C-46.57505844 325.06331373 -47.34507156 323.15390675 -48.12255859 321.24755859 C-58.07194703 296.83207523 -63.95545421 270.93231573 -67.75 244.875 C-67.86561279 244.08335449 -67.98122559 243.29170898 -68.1003418 242.47607422 C-69.83619805 229.74118952 -70.17555111 217.01644544 -70.125 204.1875 C-70.12278442 203.43555359 -70.12056885 202.68360718 -70.11828613 201.90887451 C-70.04121821 179.58822597 -70.04121821 179.58822597 -69 170 C-68.85401367 168.61022949 -68.85401367 168.61022949 -68.70507812 167.19238281 C-67.01573714 151.93582029 -64.07530401 137.14134188 -60.4375 122.25 C-60.2420459 121.44727661 -60.0465918 120.64455322 -59.84521484 119.81750488 C-59.27840007 117.50648957 -58.70227383 115.1980661 -58.12109375 112.890625 C-57.95238266 112.2114502 -57.78367157 111.53227539 -57.60984802 110.83251953 C-56.39004356 106.08366302 -54.78101415 101.56480076 -53 97 C-52.62657471 95.99646484 -52.25314941 94.99292969 -51.8684082 93.95898438 C-47.16258175 81.32976433 -42.43341558 68.87850155 -36.05810547 56.98974609 C-34.87909692 54.77264419 -33.73743515 52.53829247 -32.59765625 50.30078125 C-23.48996221 32.52574576 -12.68993502 15.46303245 0 0 Z " fill="#096331" transform="translate(240,348)"/>
<path d="M0 0 C1.20293984 0.00276538 1.20293984 0.00276538 2.4301815 0.00558662 C3.81001968 0.00146263 3.81001968 0.00146263 5.21773338 -0.00274467 C6.22977333 0.00444588 7.24181328 0.01163643 8.2845211 0.01904488 C9.34795235 0.01875282 10.41138359 0.01846077 11.50704002 0.01815987 C15.03499978 0.01955731 18.56275041 0.03513809 22.09067345 0.05078316 C24.53162076 0.05451181 26.97256956 0.05735948 29.41351891 0.0593586 C35.84812085 0.06700667 42.28263296 0.08666525 48.71719933 0.10876656 C55.27917834 0.12919972 61.84117182 0.13835489 68.40317345 0.14843941 C81.28602434 0.16991002 94.16881287 0.2036774 107.05161095 0.24609566 C107.54661095 1.23609566 107.54661095 1.23609566 108.05161095 2.24609566 C72.08161095 2.24609566 36.11161095 2.24609566 -0.94838905 2.24609566 C-0.94838905 99.92609566 -0.94838905 197.60609566 -0.94838905 298.24609566 C-1.27838905 298.24609566 -1.60838905 298.24609566 -1.94838905 298.24609566 C-1.95262099 297.3977827 -1.95685293 296.54946974 -1.96121311 295.67545033 C-2.06488671 274.95596706 -2.17357627 254.23651527 -2.28772831 233.51708698 C-2.34281444 223.49699869 -2.39625358 213.47690684 -2.44570351 203.45678902 C-2.48884938 194.71494371 -2.5351995 185.97312202 -2.5852676 177.23131353 C-2.61162638 172.61017754 -2.63646883 167.9890455 -2.65746307 163.36788177 C-2.67734807 159.00208781 -2.70157587 154.63633777 -2.72887993 150.27058411 C-2.73808497 148.683754 -2.74581598 147.09691439 -2.75180817 145.51006889 C-2.78756427 136.30948608 -3.06752145 127.15804052 -3.59076858 117.97188878 C-3.94410717 111.6831193 -4.09666474 105.41422192 -4.09365273 99.11499214 C-4.09701134 98.05229103 -4.10036995 96.98958992 -4.10383034 95.89468575 C-4.11314092 92.468841 -4.1152715 89.04304591 -4.1163578 85.61718941 C-4.11957849 83.20532907 -4.12294315 80.79346891 -4.12644386 78.38160896 C-4.13238077 73.37199639 -4.13428883 68.36240095 -4.13369179 63.35278511 C-4.13358912 56.92228981 -4.14737166 50.49190236 -4.164464 44.06143284 C-4.17554009 39.10223567 -4.17761255 34.14306525 -4.17708206 29.18385696 C-4.17826379 26.81029124 -4.18269633 24.43672486 -4.19041443 22.06317139 C-4.20014839 18.76786485 -4.19736529 15.47280211 -4.19130898 12.17749214 C-4.19692848 11.19530205 -4.20254799 10.21311195 -4.20833778 9.20115852 C-4.2041433 8.30872444 -4.19994881 7.41629036 -4.19562721 6.49681282 C-4.19617198 5.71953048 -4.19671675 4.94224813 -4.19727802 4.14141178 C-3.83184768 1.35862066 -2.7730358 0.35025452 0 0 Z " fill="#C8E5D5" transform="translate(602.9483890533447,212.75390434265137)"/>
<path d="M0 0 C0.33 0 0.66 0 1 0 C1.33 103.29 1.66 206.58 2 313 C1.67 313 1.34 313 1 313 C0.67 310.36 0.34 307.72 0 305 C-0.33 305 -0.66 305 -1 305 C-1.02286489 266.28921984 -1.04049747 227.5784407 -1.05106533 188.86765516 C-1.05231611 184.30247648 -1.05361042 179.73729781 -1.05493164 175.17211914 C-1.05519395 174.26323456 -1.05545626 173.35434998 -1.05572652 172.41792344 C-1.06008353 157.68138315 -1.06797125 142.94484675 -1.0771528 128.20830876 C-1.08648848 113.09890837 -1.09205543 97.98951002 -1.09408849 82.88010687 C-1.0954639 73.54903394 -1.09981543 64.21797199 -1.10791647 54.88690244 C-1.11318288 48.49722868 -1.11480454 42.10756063 -1.11350138 35.71788485 C-1.11285783 32.0256926 -1.11387736 28.33351959 -1.11920547 24.64133072 C-1.12492646 20.64796992 -1.12300116 16.65463461 -1.12025452 12.66127014 C-1.12316736 11.4813347 -1.1260802 10.30139926 -1.12908131 9.0857082 C-1.12609474 7.49429325 -1.12609474 7.49429325 -1.12304783 5.87072849 C-1.12342755 4.94762837 -1.12380727 4.02452825 -1.1241985 3.07345539 C-1 1 -1 1 0 0 Z " fill="#EAFDF3" transform="translate(280,214)"/>
<path d="M0 0 C0.33 0 0.66 0 1 0 C1.77902987 3.44473455 2.12333702 6.61589817 2.1174612 10.14478493 C2.11821886 11.16510799 2.11897651 12.18543105 2.11975712 13.236673 C2.11548003 14.35076238 2.11120295 15.46485175 2.10679626 16.61270142 C2.10623956 17.80160961 2.10568285 18.9905178 2.10510927 20.21545351 C2.10259822 23.51220579 2.09559853 26.80889386 2.08674753 30.10563159 C2.07831372 33.66270207 2.07571778 37.21977713 2.07249451 40.77685547 C2.06619634 46.94112479 2.05645565 53.10538087 2.04459953 59.26964188 C2.02761584 68.1941 2.01806754 77.11855483 2.0107208 86.04302554 C1.99877291 100.53829047 1.98382478 115.03355023 1.96557617 129.52880859 C1.96448605 130.39635518 1.96339593 131.26390178 1.96227277 132.15773766 C1.9466734 144.46034538 1.9280811 156.76294677 1.9082749 169.06554835 C1.90688158 169.93127579 1.90548827 170.79700323 1.90405273 171.68896484 C1.9026592 172.5536345 1.90126567 173.41830416 1.89982992 174.30917592 C1.87676932 188.74303189 1.86146971 203.17688378 1.85249335 217.61075532 C1.84664949 226.50838133 1.83430271 235.40595118 1.81352056 244.30355506 C1.79977807 250.40591474 1.7933177 256.50825488 1.79251044 262.61062987 C1.79180871 266.12792523 1.78786698 269.64513691 1.7750473 273.16241074 C1.76282084 276.98346478 1.7630208 280.80432888 1.76622009 284.62539673 C1.75971229 285.72610178 1.75320449 286.82680682 1.74649948 287.96086657 C1.76625632 294.04260984 2.30537197 299.71044982 3.55164534 305.66754282 C4.13419651 308.69812505 4.19746313 311.60781697 4.125 314.6875 C4.10695313 315.70199219 4.08890625 316.71648437 4.0703125 317.76171875 C4.03550781 318.86966797 4.03550781 318.86966797 4 320 C-3.36734835 307.34037831 -0.27404992 286.79833907 -0.23213124 272.78005314 C-0.22340063 269.11022558 -0.22642362 265.44040389 -0.22793579 261.77056885 C-0.22897864 255.43020932 -0.22276533 249.08989132 -0.21146011 242.74954224 C-0.19512593 233.58274894 -0.18998905 224.4159755 -0.18748413 215.24916923 C-0.18311938 200.37248168 -0.16984356 185.49581621 -0.15087891 170.61914062 C-0.13248841 156.17773549 -0.11834746 141.73633637 -0.10986328 127.29492188 C-0.10933783 126.40302678 -0.10881239 125.51113168 -0.10827102 124.59220946 C-0.10566072 120.11731827 -0.10313336 115.64242704 -0.10064721 111.16753578 C-0.07995273 74.11167494 -0.04476065 37.0558392 0 0 Z " fill="#EDFEF8" transform="translate(391,215)"/>
<path d="M0 0 C0.33 0 0.66 0 1 0 C1.86655579 10.86439112 2.15904549 21.64701595 2.17700195 32.54174805 C2.18328635 34.24547965 2.18993479 35.94920995 2.19691467 37.65293884 C2.21771333 43.18918954 2.22829042 48.72543979 2.23828125 54.26171875 C2.24233712 56.1839531 2.24645426 58.10618731 2.25063133 60.0284214 C2.26962555 69.06153746 2.28387147 78.09464563 2.2922433 87.12777776 C2.30201044 97.48902648 2.32834088 107.85006131 2.36874419 118.21123475 C2.39906051 126.2669865 2.41372655 134.32267741 2.41702431 142.37848502 C2.4193559 147.16888586 2.42806747 151.95905669 2.45348549 156.74939537 C2.64621634 194.94758346 2.64621634 194.94758346 -2 211 C-2.33 211 -2.66 211 -3 211 C-2.88513575 208.62412376 -2.75841844 206.24984829 -2.625 203.875 C-2.57859375 202.87726563 -2.57859375 202.87726563 -2.53125 201.859375 C-2.35074604 198.79080772 -2.05438305 196.14772169 -0.98915291 193.25421715 C0.16340275 189.4624208 0.27214875 185.9855041 0.24050903 182.06533813 C0.24307231 180.89383589 0.24307231 180.89383589 0.24568737 179.69866693 C0.24897177 177.0914973 0.23799596 174.48458718 0.22705078 171.87744141 C0.22648644 170.00465908 0.22680367 168.13187631 0.22793579 166.25909424 C0.22850941 161.18106025 0.21675354 156.10312083 0.20278788 151.02510881 C0.19028211 145.71599336 0.18911014 140.40687572 0.18673706 135.0977478 C0.18052185 125.0468752 0.16411044 114.99604613 0.14403808 104.94519269 C0.12168039 93.5015047 0.11068597 82.05781463 0.10064721 70.61411023 C0.07974428 47.07604936 0.04456746 23.53802712 0 0 Z " fill="#F0FEF6" transform="translate(599,328)"/>
<path d="M0 0 C0 3.58283864 -0.91048353 4.91807722 -2.7109375 7.98828125 C-3.29166016 8.99383057 -3.87238281 9.99937988 -4.47070312 11.03540039 C-5.09912109 12.11684326 -5.72753906 13.19828613 -6.375 14.3125 C-15.8390358 30.90932165 -23.65117411 47.98585174 -30 66 C-30.33 66 -30.66 66 -31 66 C-31 63.69 -31 61.38 -31 59 C-30.34 59 -29.68 59 -29 59 C-29.33 57.35 -29.66 55.7 -30 54 C-30.45375 54.495 -30.9075 54.99 -31.375 55.5 C-33 57 -33 57 -35 57 C-35.33 58.98 -35.66 60.96 -36 63 C-37.485 63.495 -37.485 63.495 -39 64 C-37.34213261 58.04359023 -34.40468733 52.88124026 -31.4375 47.5 C-30.89738281 46.51749268 -30.35726562 45.53498535 -29.80078125 44.52270508 C-21.17607711 28.97345693 -11.29486857 13.76310588 0 0 Z " fill="#146B3A" transform="translate(240,348)"/>
<path d="M0 0 C0.33 0 0.66 0 1 0 C1.00146656 0.8737046 1.00293312 1.74740919 1.00444412 2.64758968 C1.04168217 24.02016897 1.1009192 45.39259182 1.18390274 66.76504421 C1.22351795 77.10109617 1.25599861 87.43707393 1.27099609 97.77319336 C1.28410428 106.79423245 1.31129877 115.81510706 1.35461307 124.83605343 C1.37702428 129.60163627 1.39292312 134.36701781 1.39188385 139.132658 C1.3925611 166.55430584 2.61456831 191.92814699 12.24316406 217.93896484 C13.22265071 220.60632816 14.11853333 223.29887194 15 226 C14.01 226 13.02 226 12 226 C11.32645501 224.56570999 10.66140299 223.12742943 10 221.6875 C9.443125 220.48673828 9.443125 220.48673828 8.875 219.26171875 C8 217 8 217 8 214 C7.34 213.67 6.68 213.34 6 213 C5.64080332 211.33871537 5.31088368 209.67099977 5 208 C4.67128906 207.42121094 4.34257812 206.84242188 4.00390625 206.24609375 C2.67212067 203.26641784 2.60989903 200.62490518 2.4375 197.375 C2.32793502 193.02892654 2.32793502 193.02892654 1 189 C-0.2972161 180.29029192 -0.35416176 171.49185497 -0.5546875 162.703125 C-0.57562344 161.81997871 -0.59655937 160.93683243 -0.61812973 160.02692413 C-1.25717529 132.19831723 -1.15094805 104.35795112 -1.12856936 76.52368498 C-1.12418801 70.42960423 -1.12735937 64.33554387 -1.1321975 58.24146438 C-1.13673444 52.28388269 -1.13737902 46.32630983 -1.13475883 40.36872697 C-1.13321078 36.84464675 -1.13296333 33.32058045 -1.13629532 29.79650116 C-1.13972118 25.90826759 -1.13497526 22.02006752 -1.12939453 18.13183594 C-1.13141876 16.98509399 -1.13344299 15.83835205 -1.13552856 14.65686035 C-1.12222395 9.66392542 -1.07600613 4.90360807 0 0 Z " fill="#175A37" transform="translate(389,336)"/>
<path d="M0 0 C35.64 0 71.28 0 108 0 C108 38.94 108 77.88 108 118 C107.67 118 107.34 118 107 118 C106.07270967 89.48109127 105.97089608 61.02557567 106.4375 32.5 C106.45672075 31.32399923 106.45672075 31.32399923 106.4763298 30.12424088 C106.63634079 20.41588068 106.811073 10.70784195 107 1 C93.76988243 1.10746334 80.5398199 1.2200891 67.30980301 1.33933926 C61.16684008 1.39454656 55.02387237 1.44796316 48.88085938 1.49731445 C42.95455502 1.54499021 37.02830873 1.59733434 31.10207367 1.65294075 C28.83903191 1.67334971 26.57597423 1.69206521 24.31290436 1.70907402 C21.1476719 1.73315016 17.9825491 1.76320059 14.81738281 1.79467773 C13.87798859 1.8004332 12.93859436 1.80618866 11.97073364 1.81211853 C11.10699127 1.82190735 10.2432489 1.83169617 9.35333252 1.84178162 C8.60483662 1.84823417 7.85634071 1.85468672 7.08516312 1.8613348 C4.95121988 2.00324392 3.05384586 2.41744115 1 3 C0.67 2.01 0.34 1.02 0 0 Z " fill="#1A5A38" transform="translate(282,215)"/>
<path d="M0 0 C0.33 0 0.66 0 1 0 C1.21534354 8.30268967 1.01311187 15.93395042 -1 24 C-1.3796825 25.62391231 -1.75482932 27.24889309 -2.125 28.875 C-2.29257813 29.57367188 -2.46015625 30.27234375 -2.6328125 30.9921875 C-3.11993055 33.31560513 -3.11993055 33.31560513 -3 37 C-3.66 37 -4.32 37 -5 37 C-4.91621094 37.67546875 -4.83242187 38.3509375 -4.74609375 39.046875 C-4.64425781 39.93890625 -4.54242188 40.8309375 -4.4375 41.75 C-4.33308594 42.63171875 -4.22867188 43.5134375 -4.12109375 44.421875 C-4.00428078 46.90886075 -4.3211286 48.6314931 -5 51 C-5 51.886875 -5 52.77375 -5 53.6875 C-5 54.450625 -5 55.21375 -5 56 C-5.495 56.495 -5.495 56.495 -6 57 C-6.09845439 58.54409652 -6.12798604 60.09266106 -6.12939453 61.63989258 C-6.13254669 62.62794388 -6.13569885 63.61599518 -6.13894653 64.63398743 C-6.1369223 65.70996689 -6.13489807 66.78594635 -6.1328125 67.89453125 C-6.13424759 69.54288216 -6.13424759 69.54288216 -6.13571167 71.22453308 C-6.13639384 73.55569516 -6.13453702 75.88685912 -6.13037109 78.21801758 C-6.1250386 81.78666468 -6.13030698 85.35518504 -6.13671875 88.92382812 C-6.13605767 91.18489611 -6.1347759 93.44596402 -6.1328125 95.70703125 C-6.13483673 96.77693802 -6.13686096 97.84684479 -6.13894653 98.94917297 C-6.13421829 100.44543465 -6.13421829 100.44543465 -6.12939453 101.97192383 C-6.12859894 102.84826981 -6.12780334 103.72461578 -6.12698364 104.6275177 C-6.0779464 106.97864893 -6.0779464 106.97864893 -5.46456909 109.11112976 C-4.7839234 111.87853598 -5.43640388 114.2446412 -6 117 C-6.33 117 -6.66 117 -7 117 C-9.35955471 98.67131607 -9.31067269 80.4397694 -9 62 C-8.98598145 61.09733398 -8.97196289 60.19466797 -8.95751953 59.26464844 C-8.538026 39.41438776 -5.14388392 19.15275926 0 0 Z " fill="#306E4B" transform="translate(179,473)"/>
<path d="M0 0 C8.91 0.66 17.82 1.32 27 2 C27 2.66 27 3.32 27 4 C27.66531738 3.99476318 28.33063477 3.98952637 29.01611328 3.98413086 C32.05239911 3.96324747 35.08866978 3.9503038 38.125 3.9375 C39.17171875 3.92912109 40.2184375 3.92074219 41.296875 3.91210938 C46.33716423 3.89615909 51.03719496 4.04151834 56 5 C58.52371179 5.19902218 61.03555584 5.36817249 63.5625 5.5 C64.63842407 5.55982056 64.63842407 5.55982056 65.73608398 5.62084961 C75.15454586 6.13480248 84.57746071 6.56848627 94 7 C94 7.33 94 7.66 94 8 C87.66455947 8.02535418 81.32913203 8.04286866 74.99365234 8.05493164 C72.83837393 8.05996052 70.68309893 8.06678442 68.52783203 8.07543945 C65.43000446 8.08756821 62.33222199 8.09324278 59.234375 8.09765625 C57.78886261 8.10539818 57.78886261 8.10539818 56.31414795 8.11329651 C54.96320038 8.11340981 54.96320038 8.11340981 53.58496094 8.11352539 C52.39915436 8.11685631 52.39915436 8.11685631 51.18939209 8.12025452 C48.99295843 7.99961323 47.12375993 7.54979968 45 7 C43.50659962 6.84196283 42.009095 6.72020445 40.51025391 6.62695312 C39.62898834 6.57019409 38.74772278 6.51343506 37.8397522 6.45495605 C36.8948996 6.39763306 35.950047 6.34031006 34.9765625 6.28125 C33.99763031 6.21844849 33.01869812 6.15564697 32.01010132 6.09094238 C28.88194437 5.89047022 25.75351801 5.69475097 22.625 5.5 C19.50363911 5.30503529 16.38237188 5.10894295 13.26132202 4.90905762 C11.32044716 4.78478742 9.37938999 4.66332385 7.43814087 4.54504395 C2.89825202 4.25472348 -1.52418818 3.86419238 -6 3 C-6 2.67 -6 2.34 -6 2 C-4.02 2 -2.04 2 0 2 C0 1.34 0 0.68 0 0 Z " fill="#2C6E48" transform="translate(566,638)"/>
<path d="M0 0 C0.33 0.66 0.66 1.32 1 2 C5.29675755 2.6784354 9.53170295 2.97450802 13.875 3.2109375 C14.56392334 3.24888428 15.25284668 3.28683105 15.96264648 3.32592773 C17.98635158 3.43345398 20.01075722 3.52753745 22.03515625 3.62109375 C24.93240391 3.89797358 27.15379756 4.25452745 29.890625 5.0234375 C34.50815546 6.26020584 38.93111508 6.25991399 43.6875 6.1875 C44.58654053 6.18032959 45.48558105 6.17315918 46.41186523 6.16577148 C53.13310556 6.08706844 59.84771586 5.86181037 66.5625 5.5625 C67.89124146 5.50388794 67.89124146 5.50388794 69.24682617 5.4440918 C70.0741626 5.40195557 70.90149902 5.35981934 71.75390625 5.31640625 C72.47908447 5.27974854 73.2042627 5.24309082 73.95141602 5.20532227 C76.01877541 5.04894002 76.01877541 5.04894002 78.05444336 4.48022461 C81.01204278 3.75019599 83.96185765 4 87 4 C88.6396875 3.690625 88.6396875 3.690625 90.3125 3.375 C91.6428125 3.189375 91.6428125 3.189375 93 3 C93.99 3.99 93.99 3.99 95 5 C79.44635019 7.4448881 64.15825653 8.30956374 48.4375 8.3125 C47.59944824 8.31572266 46.76139648 8.31894531 45.89794922 8.32226562 C30.29636591 8.35889623 15.27094838 6.81745278 -0.0625 3.875 C-1.03509766 3.69324219 -2.00769531 3.51148438 -3.00976562 3.32421875 C-5.34084681 2.88785872 -7.67084907 2.44652621 -10 2 C-10 1.67 -10 1.34 -10 1 C-6.7 0.67 -3.4 0.34 0 0 Z " fill="#D2EEDF" transform="translate(409,807)"/>
<path d="M0 0 C2 2 2 2 2.01171875 4.0390625 C1.85123047 5.31910156 1.85123047 5.31910156 1.6875 6.625 C0.04021004 21.03303795 -0.24198633 35.51539842 -0.5625 50 C-0.60583546 51.85417333 -0.64945365 53.70834008 -0.69335938 55.5625 C-0.79882056 60.04159772 -0.90049702 64.52076613 -1 69 C-1.33 69 -1.66 69 -2 69 C-2.33 60.09 -2.66 51.18 -3 42 C-3.33 42 -3.66 42 -4 42 C-4.21699613 32.69327707 -4.02679106 23.52116499 -3.125 14.25 C-3.00729248 12.9830127 -3.00729248 12.9830127 -2.88720703 11.69042969 C-2.44496987 7.47517106 -1.87000411 3.86572278 0 0 Z " fill="#2D6D49" transform="translate(193,470)"/>
<path d="M0 0 C1.84860351 0.12017201 3.69756633 0.23496714 5.546875 0.34375 C6.35479492 0.39724609 7.16271484 0.45074219 7.99511719 0.50585938 C10.25282529 0.49999266 12.07516804 0.05001272 14.25 -0.5 C14.745 -0.005 14.745 -0.005 15.25 0.5 C17.1666638 0.52109536 19.08394511 0.49021443 21 0.4375 C26.90063011 0.38574009 32.41724248 0.98982203 38.22265625 1.99609375 C40.96482508 2.45253218 43.66989624 2.75645087 46.4375 3 C50.25 3.5 50.25 3.5 52.25 5.5 C44.90083009 5.63684661 37.6932437 5.20198007 30.375 4.5625 C19.42196529 3.65299628 8.4886288 3.13662333 -2.49755859 2.84204102 C-7.99551385 2.68494516 -13.32861524 2.44933076 -18.75 1.5 C-18.75 1.17 -18.75 0.84 -18.75 0.5 C-12.37085411 -0.51826742 -6.43294954 -0.4252442 0 0 Z " fill="#1C623A" transform="translate(503.75,634.5)"/>
<path d="M0 0 C0.66 0.33 1.32 0.66 2 1 C0.77076021 6.80076489 -0.66205237 12.4938505 -2.3125 18.1875 C-4.3402348 25.32891895 -6.11005196 32.50996438 -7.75 39.75 C-8.06578003 41.14255005 -8.06578003 41.14255005 -8.38793945 42.56323242 C-9.38469612 47.02721714 -10.31088216 51.47579157 -11 56 C-12.5625 54.3125 -12.5625 54.3125 -14 52 C-13.75 49.5625 -13.75 49.5625 -13 47 C-12.40075494 44.20352306 -12 41.87126759 -12 39 C-11.34 39 -10.68 39 -10 39 C-10.03738281 37.98679687 -10.07476562 36.97359375 -10.11328125 35.9296875 C-9.999299 31.97568256 -9.32984603 28.89859252 -8.1875 25.125 C-7.82140625 23.90683594 -7.4553125 22.68867188 -7.078125 21.43359375 C-5.77061465 17.26945753 -4.42134193 13.12647657 -3 9 C-2.4359478 7.31301819 -1.87342706 5.6255235 -1.3125 3.9375 C-0.875 2.625 -0.4375 1.3125 0 0 Z " fill="#246944" transform="translate(207,413)"/>
<path d="M0 0 C1.61455078 0.00483398 1.61455078 0.00483398 3.26171875 0.00976562 C4.38964844 0.01814453 5.51757812 0.02652344 6.6796875 0.03515625 C7.81535156 0.03966797 8.95101563 0.04417969 10.12109375 0.04882812 C12.93234388 0.0606401 15.7434898 0.07711118 18.5546875 0.09765625 C18.5546875 0.75765625 18.5546875 1.41765625 18.5546875 2.09765625 C20.19824219 1.82501953 20.19824219 1.82501953 21.875 1.546875 C27.13427296 0.8920735 32.17760325 1.37251253 37.4296875 1.91015625 C38.3784375 1.99330078 39.3271875 2.07644531 40.3046875 2.16210938 C41.66207031 2.29456055 41.66207031 2.29456055 43.046875 2.4296875 C43.86526855 2.50936768 44.68366211 2.58904785 45.52685547 2.67114258 C47.5546875 3.09765625 47.5546875 3.09765625 49.5546875 5.09765625 C27.4446875 4.43765625 5.3346875 3.77765625 -17.4453125 3.09765625 C-17.4453125 2.76765625 -17.4453125 2.43765625 -17.4453125 2.09765625 C-16.39730469 2.00677734 -16.39730469 2.00677734 -15.328125 1.9140625 C-14.41804688 1.83027344 -13.50796875 1.74648438 -12.5703125 1.66015625 C-11.66539062 1.57894531 -10.76046875 1.49773438 -9.828125 1.4140625 C-6.27201409 0.94185761 -3.74555953 -0.01971347 0 0 Z " fill="#E3F7ED" transform="translate(501.4453125,653.90234375)"/>
<path d="M0 0 C0.33 0 0.66 0 1 0 C1.02736707 1.39572052 1.04655989 2.79160221 1.0625 4.1875 C1.07410156 4.96480469 1.08570313 5.74210937 1.09765625 6.54296875 C1 9 1 9 0.52905273 11.19311523 C-2.09554816 25.11791288 -1.09636921 40.02297235 -1 54.125 C-0.97326818 58.10676809 -0.95339466 62.08848811 -0.9375 66.0703125 C-0.92920166 66.96517365 -0.92090332 67.86003479 -0.91235352 68.78201294 C-0.8933868 73.63697192 -1.17533142 78.21351318 -2 83 C-2.33 83 -2.66 83 -3 83 C-3.0697676 73.65472702 -3.12294634 64.30954485 -3.15543652 54.96406746 C-3.17103675 50.62373729 -3.1921708 46.2835864 -3.22631836 41.94335938 C-3.25911455 37.74824151 -3.27689536 33.55329519 -3.28463173 29.35805893 C-3.29013912 27.76421283 -3.30089293 26.17037523 -3.31719017 24.57660294 C-3.40145501 15.98790507 -3.28683992 8.09951023 0 0 Z " fill="#DCF5E7" transform="translate(172,504)"/>
<path d="M0 0 C0 3.67785921 -1.05570399 5.2007092 -2.88671875 8.375 C-3.8003418 9.97794922 -3.8003418 9.97794922 -4.73242188 11.61328125 C-5.37759766 12.73089844 -6.02277344 13.84851563 -6.6875 15 C-11.20761703 22.84852452 -15.42526831 30.67182438 -19 39 C-19.5534764 36.92446352 -20 35.15634036 -20 33 C-20.66 32.34 -21.32 31.68 -22 31 C-15.07589076 20.33809728 -7.72249047 10.0976207 0 0 Z " fill="#296141" transform="translate(240,348)"/>
<path d="M0 0 C1.51553092 3.97450493 0.49888623 7.20481149 -0.4375 11.25 C-0.86869141 13.14492188 -0.86869141 13.14492188 -1.30859375 15.078125 C-1.53675781 16.04234375 -1.76492188 17.0065625 -2 18 C-4 16 -4 16 -4.125 12.875 C-4.08375 11.92625 -4.0425 10.9775 -4 10 C-4.50789062 10.44730469 -5.01578125 10.89460937 -5.5390625 11.35546875 C-6.97082428 12.61295241 -8.40590339 13.86666598 -9.84375 15.1171875 C-11.12480833 16.23579278 -12.39863781 17.36291084 -13.65625 18.5078125 C-16.90433742 21.39308164 -19.75139727 23.03440847 -24 24 C-24.66 23.67 -25.32 23.34 -26 23 C-25.10539063 22.31035156 -24.21078125 21.62070312 -23.2890625 20.91015625 C-10.47441468 11.59579017 -10.47441468 11.59579017 0 0 Z " fill="#24643F" transform="translate(789,609)"/>
<path d="M0 0 C0.495 1.485 0.495 1.485 1 3 C-0.7735178 5.28659033 -1.65937635 5.94948763 -4.56889343 6.38095093 C-5.59763077 6.38333771 -6.6263681 6.38572449 -7.6862793 6.38818359 C-9.44037361 6.40236832 -9.44037361 6.40236832 -11.22990417 6.4168396 C-12.49852798 6.41076691 -13.76715179 6.40469421 -15.07421875 6.3984375 C-17.04186943 6.40274277 -17.04186943 6.40274277 -19.04927063 6.40713501 C-21.8360955 6.41156368 -24.62263244 6.40512365 -27.40942383 6.39111328 C-30.93404531 6.37423464 -34.45797649 6.38397759 -37.98257256 6.40147018 C-65.87391361 6.51827735 -65.87391361 6.51827735 -79 3 C-79 2.67 -79 2.34 -79 2 C-75.08305929 2.13899687 -71.16652898 2.28738133 -67.25 2.4375 C-66.13882813 2.47681641 -65.02765625 2.51613281 -63.8828125 2.55664062 C-62.81289063 2.59853516 -61.74296875 2.64042969 -60.640625 2.68359375 C-59.16384277 2.73858032 -59.16384277 2.73858032 -57.65722656 2.79467773 C-55 3 -55 3 -53.14343262 3.5057373 C-50.71253069 4.0662887 -48.54235156 4.11995451 -46.04785156 4.11352539 C-45.06713684 4.11344986 -44.08642212 4.11337433 -43.07598877 4.11329651 C-42.02481873 4.10813522 -40.97364868 4.10297394 -39.890625 4.09765625 C-38.80867859 4.0962413 -37.72673218 4.09482635 -36.61199951 4.09336853 C-33.1579715 4.08777318 -29.70400841 4.0752215 -26.25 4.0625 C-23.90755302 4.0574844 -21.56510502 4.0529216 -19.22265625 4.04882812 C-13.4817487 4.03780528 -7.74087899 4.02107174 -2 4 C-1.34 2.68 -0.68 1.36 0 0 Z " fill="#C8E4D6" transform="translate(666,641)"/>
<path d="M0 0 C0.33 0 0.66 0 1 0 C1.08451416 0.64735107 1.16902832 1.29470215 1.25610352 1.96166992 C3.22106749 16.55542002 6.12839697 30.12186435 11.24316406 43.93896484 C12.22265071 46.60632816 13.11853333 49.29887194 14 52 C13.01 52 12.02 52 11 52 C10.32645501 50.56570999 9.66140299 49.12742943 9 47.6875 C8.443125 46.48673828 8.443125 46.48673828 7.875 45.26171875 C7 43 7 43 7 40 C6.34 39.67 5.68 39.34 5 39 C4.64080332 37.33871537 4.31088368 35.67099977 4 34 C3.67128906 33.42121094 3.34257812 32.84242188 3.00390625 32.24609375 C1.67212067 29.26641784 1.60989903 26.62490518 1.4375 23.375 C1.32793502 19.02892654 1.32793502 19.02892654 0 15 C-0.25597375 12.83844393 -0.45695638 10.67016326 -0.625 8.5 C-0.72039062 7.3346875 -0.81578125 6.169375 -0.9140625 4.96875 C-1 2 -1 2 0 0 Z " fill="#286644" transform="translate(390,510)"/>
<path d="M0 0 C0.495 0.99 0.495 0.99 1 2 C-29.82562278 8.50622776 -29.82562278 8.50622776 -44 8 C-44 7.34 -44 6.68 -44 6 C-37.86497841 4.99537802 -31.76681385 4.00698816 -25.5625 3.5625 C-19.99794792 3.12190497 -14.6846471 1.91344498 -9.26171875 0.62109375 C-6.08589208 0.0163555 -3.22327041 -0.11215616 0 0 Z " fill="#1E633C" transform="translate(549,881)"/>
<path d="M0 0 C22.42489506 -0.2123879 44.66975974 -0.36145981 67 2 C67 2.33 67 2.66 67 3 C59.37145754 4.78540355 52.75727034 5.11032496 45 4 C45 3.67 45 3.34 45 3 C30.03071751 1.76569074 15.00844544 1.45294775 0 1 C0 0.67 0 0.34 0 0 Z " fill="#2F6C4A" transform="translate(484,657)"/>
<path d="M0 0 C2.26382214 0.00533863 4.52744377 0.00003275 6.79125977 -0.00634766 C16.22470243 -0.01019286 25.56080162 0.37236473 34.96508789 1.13037109 C34.96508789 1.46037109 34.96508789 1.79037109 34.96508789 2.13037109 C28.45879946 2.27557 21.95244696 2.41760239 15.44604492 2.55761719 C13.24095155 2.60542148 11.03587274 2.65390339 8.83081055 2.703125 C-4.46013416 2.9992852 -17.74051636 3.2068856 -31.03491211 3.13037109 C-22.41564429 -1.81105804 -9.72623777 -0.02718286 0 0 Z " fill="#C6E4D4" transform="translate(500.034912109375,636.86962890625)"/>
<path d="M0 0 C-1.79008913 2.26180181 -2.7085863 2.94645712 -5.59375 3.4765625 C-7.03234375 3.55003906 -7.03234375 3.55003906 -8.5 3.625 C-11.64011393 3.8022645 -14.00015429 4.00005143 -17 5 C-18.34531712 5.06814165 -19.69399006 5.07994773 -21.04077148 5.0534668 C-21.84848495 5.0398259 -22.65619843 5.026185 -23.48838806 5.01213074 C-24.35718094 4.99136978 -25.22597382 4.97060883 -26.12109375 4.94921875 C-27.46555321 4.92091728 -27.46555321 4.92091728 -28.83717346 4.89204407 C-30.73273994 4.85017468 -32.62824494 4.80543854 -34.52368164 4.75805664 C-37.42256599 4.68786162 -40.32146739 4.63350778 -43.22070312 4.58007812 C-45.0625227 4.5374277 -46.90432084 4.49383904 -48.74609375 4.44921875 C-49.6128624 4.43453049 -50.47963104 4.41984222 -51.37266541 4.40470886 C-52.18353104 4.38161148 -52.99439667 4.3585141 -53.82983398 4.3347168 C-54.89547829 4.31020699 -54.89547829 4.31020699 -55.98265076 4.28520203 C-58.30691426 3.95661011 -59.9653499 3.14529501 -62 2 C-60.96818604 2.01047363 -59.93637207 2.02094727 -58.87329102 2.03173828 C-54.95747502 2.06859234 -51.04167346 2.0911321 -47.12573242 2.10986328 C-45.44732059 2.11977485 -43.7689253 2.13330804 -42.09057617 2.15087891 C-32.54279031 2.24815931 -23.21899301 2.04729274 -13.75257874 0.70510864 C-9.10542188 0.05364933 -4.67928234 -0.08257748 0 0 Z " fill="#E8FCF2" transform="translate(530,887)"/>
<path d="M0 0 C0.33 0 0.66 0 1 0 C1.1008019 5.47276766 1.17235343 10.94496565 1.21972656 16.41845703 C1.23952705 18.27044107 1.26657479 20.12236542 1.30175781 21.97412109 C1.55177584 35.49715515 0.15636307 47.84433567 -3 61 C-3.33 61 -3.66 61 -4 61 C-3.88513575 58.62412376 -3.75841844 56.24984829 -3.625 53.875 C-3.5940625 53.20984375 -3.563125 52.5446875 -3.53125 51.859375 C-3.34937437 48.76748923 -3.03785004 46.10495405 -1.98413086 43.18310547 C-0.8980857 39.670365 -0.78665894 36.87262215 -0.83984375 33.203125 C-0.85080078 31.9140625 -0.86175781 30.625 -0.87304688 29.296875 C-0.89377766 27.94790488 -0.91526641 26.59894619 -0.9375 25.25 C-1.05610756 16.76801251 -1.12698594 8.4231303 0 0 Z " fill="#EFFEF5" transform="translate(600,478)"/>
<path d="M0 0 C0.33 0 0.66 0 1 0 C1.59336982 10.55350605 2.06696932 21.05302056 1.9375 31.625 C1.87107135 37.78625748 2.19174727 43.41978193 3.5546875 49.45703125 C4.39662699 54.26494884 4.15276764 59.13689672 4 64 C-2.79406442 52.50180383 -0.23590149 33.83109277 -0.125 21 C-0.11494087 18.95312942 -0.10582025 16.90625401 -0.09765625 14.859375 C-0.07589645 9.90612781 -0.04153157 4.95311924 0 0 Z " fill="#EAFEF6" transform="translate(391,471)"/>
<path d="M0 0 C0.99 0 1.98 0 3 0 C-0.82164013 13.7641185 -6.45847335 26.35521276 -13 39 C-14.25541557 35.23375329 -13.37061958 33.62811066 -12 30 C-11.34 30 -10.68 30 -10 30 C-9.91363281 29.39414062 -9.82726562 28.78828125 -9.73828125 28.1640625 C-8.74489 22.2401697 -7.01008872 17.49019131 -4.12109375 12.2265625 C-3.059048 10.11727303 -2.49658899 8.29555286 -2 6 C-1.34490497 3.99617991 -0.68025637 1.99541868 0 0 Z " fill="#21613D" transform="translate(698,575)"/>
<path d="M0 0 C0.928125 0.20625 1.85625 0.4125 2.8125 0.625 C-0.98783924 4.42533924 -6.63583942 5.92085886 -11.5637207 7.95776367 C-13.61803378 8.80961137 -15.66541881 9.67678202 -17.71289062 10.54492188 C-19.01522976 11.08688822 -20.31795197 11.62793518 -21.62109375 12.16796875 C-22.80759521 12.66321045 -23.99409668 13.15845215 -25.21655273 13.66870117 C-28.1875 14.625 -28.1875 14.625 -31.1875 13.625 C-30.1875 11.625 -30.1875 11.625 -28.26171875 10.87890625 C-26.67847651 10.42025834 -25.09514403 9.96192183 -23.51171875 9.50390625 C-21.13802438 8.7308515 -21.13802438 8.7308515 -19.2421875 7.15625 C-16.80635779 5.34095486 -14.49891877 4.52829311 -11.625 3.5625 C-0.80148283 -0.0942921 -0.80148283 -0.0942921 0 0 Z " fill="#246741" transform="translate(627.1875,751.375)"/>
<path d="M0 0 C0 3 0 3 -1.375 4.6875 C-3 6 -3 6 -5 6 C-5.2475 6.7425 -5.495 7.485 -5.75 8.25 C-7.10494919 11.23088821 -8.66969785 12.74251979 -11 15 C-12.23512079 17.13309192 -12.23512079 17.13309192 -13 19 C-13.66 19 -14.32 19 -15 19 C-15.103125 19.598125 -15.20625 20.19625 -15.3125 20.8125 C-16.08876455 23.28243264 -17.07088921 24.32251235 -19 26 C-19.99 25.67 -20.98 25.34 -22 25 C-17.90355011 19.2292518 -13.71949458 13.53832036 -9.3125 8 C-8.60738281 7.113125 -7.90226562 6.22625 -7.17578125 5.3125 C-4.95663441 2.95390947 -2.84605755 1.51523905 0 0 Z " fill="#1E643C" transform="translate(355,720)"/>
<path d="M0 0 C0.66 0 1.32 0 2 0 C0.83061377 3.85897455 -0.61827186 7.34104129 -2.51367188 10.8984375 C-8.8378006 22.77026726 -13.33086549 35.41062992 -18 48 C-19.28950647 43.79189729 -18.37234964 41.50105388 -16.8125 37.375 C-16.58127441 36.75616943 -16.35004883 36.13733887 -16.11181641 35.49975586 C-15.42054892 33.66168845 -14.7105147 31.83071336 -14 30 C-13.63003906 29.04480469 -13.26007813 28.08960938 -12.87890625 27.10546875 C-11.42858128 23.43168838 -9.91580677 19.79687659 -8.3125 16.1875 C-7.16907353 13.41060714 -6.44799665 10.95677786 -6 8 C-5.01 8 -4.02 8 -3 8 C-3 7.01 -3 6.02 -3 5 C-2.34 5 -1.68 5 -1 5 C-0.67 3.35 -0.34 1.7 0 0 Z " fill="#DEF5E9" transform="translate(206,397)"/>
<path d="M0 0 C0.66 0.33 1.32 0.66 2 1 C-4.81369545 7.25204593 -11.79481861 13.20571915 -19 19 C-19.68707555 16.50935112 -20 14.62113708 -20 12 C-18.33710937 11.07767578 -18.33710937 11.07767578 -16.640625 10.13671875 C-15.17699811 9.32046529 -13.71346116 8.50405056 -12.25 7.6875 C-11.52039063 7.28337891 -10.79078125 6.87925781 -10.0390625 6.46289062 C-6.51875601 4.49471927 -3.14038579 2.5536295 0 0 Z " fill="#C3ECD7" transform="translate(678,725)"/>
<path d="M0 0 C0.33 0 0.66 0 1 0 C1.61916858 36.46426652 1.61916858 36.46426652 -2 54 C-2.33 54 -2.66 54 -3 54 C-3.12032186 46.61936823 -2.78724252 39.40515153 -2.0625 32.0625 C-1.0660421 21.38352925 -0.44595833 10.71473559 0 0 Z " fill="#246340" transform="translate(709,498)"/>
<path d="M0 0 C10.23 0 20.46 0 31 0 C31 0.66 31 1.32 31 2 C32.17755859 1.98259766 32.17755859 1.98259766 33.37890625 1.96484375 C39.03719775 1.91624493 44.42878878 1.98705251 50 3 C50 3.33 50 3.66 50 4 C38.94779383 4.24295507 28.12179164 3.48449146 17.125 2.5 C15.45447462 2.35492037 13.7839018 2.21038586 12.11328125 2.06640625 C8.07494817 1.7171992 4.03732278 1.36069223 0 1 C0 0.67 0 0.34 0 0 Z " fill="#DAF4E7" transform="translate(551,659)"/>
<path d="M0 0 C3.80668696 0.67176829 7.39036593 1.60536866 11 3 C11.33 3.66 11.66 4.32 12 5 C13.87969296 5.76618417 13.87969296 5.76618417 16.125 6.375 C20.51367324 7.74426605 24.09421652 9.59004849 28 12 C28 12.66 28 13.32 28 14 C17.94108855 11.56639239 9.12194217 6.75480117 0 2 C0 1.34 0 0.68 0 0 Z " fill="#2F6F4B" transform="translate(343,759)"/>
<path d="M0 0 C1.06863281 0.01804687 2.13726562 0.03609375 3.23828125 0.0546875 C4.04652344 0.07789063 4.85476563 0.10109375 5.6875 0.125 C5.6875 0.455 5.6875 0.785 5.6875 1.125 C4.59953125 1.42792969 3.5115625 1.73085938 2.390625 2.04296875 C-5.66642139 4.32791255 -13.37457006 6.76111616 -20.9921875 10.3046875 C-23.3125 11.125 -23.3125 11.125 -26.3125 10.125 C-24.01355526 7.82605526 -22.33716596 7.30856494 -19.3125 6.125 C-17.32029779 5.14906289 -15.34629308 4.14244159 -13.375 3.125 C-8.68177819 0.84949852 -5.27664966 -0.11597032 0 0 Z " fill="#2B6E48" transform="translate(433.3125,644.875)"/>
<path d="M0 0 C0.8971875 0.309375 0.8971875 0.309375 1.8125 0.625 C-7.67488251 6.10551621 -17.13598883 11.23606961 -27.1875 15.625 C-27.5175 14.635 -27.8475 13.645 -28.1875 12.625 C-27.43984375 12.28726563 -26.6921875 11.94953125 -25.921875 11.6015625 C-24.93703125 11.15554688 -23.9521875 10.70953125 -22.9375 10.25 C-21.96296875 9.80914063 -20.9884375 9.36828125 -19.984375 8.9140625 C-18.30686402 8.140908 -16.64364027 7.33350684 -15.015625 6.4609375 C-13.1875 5.625 -13.1875 5.625 -10.1875 5.625 C-10.1875 4.965 -10.1875 4.305 -10.1875 3.625 C-9.424375 3.33625 -8.66125 3.0475 -7.875 2.75 C-0.92623874 -0.15878378 -0.92623874 -0.15878378 0 0 Z " fill="#256542" transform="translate(631.1875,848.375)"/>
<path d="M0 0 C0.66 0.33 1.32 0.66 2 1 C2.61010742 3.62036133 2.61010742 3.62036133 3.10546875 7.08203125 C3.28400391 8.32404297 3.46253906 9.56605469 3.64648438 10.84570312 C3.73502686 11.49676025 3.82356934 12.14781738 3.91479492 12.81860352 C4.18518078 14.79554294 4.47434957 16.76988365 4.76367188 18.74414062 C6.24905386 29.33913465 6.24905386 29.33913465 5 33 C0.70416994 24.71518489 0.70416994 24.71518489 0.875 19.875 C1.21015165 16.01800366 1.21015165 16.01800366 -0.0625 12.5625 C-1.23664358 8.1007544 -0.75436061 4.49558148 0 0 Z " fill="#2E6948" transform="translate(192,552)"/>
<path d="M0 0 C0.33 0.66 0.66 1.32 1 2 C-1.14063943 7.88894275 -5.28002538 11.62802166 -9.6875 15.875 C-10.38939453 16.56335938 -11.09128906 17.25171875 -11.81445312 17.9609375 C-13.53632855 19.64767261 -15.26482574 21.32696697 -17 23 C-17.99 22.67 -18.98 22.34 -20 22 C-19.45472656 21.47792969 -18.90945313 20.95585938 -18.34765625 20.41796875 C-13.12170967 15.31708756 -8.40045167 9.99421717 -3.84765625 4.28515625 C-2 2 -2 2 0 0 Z " fill="#DDF4E7" transform="translate(714,777)"/>
<path d="M0 0 C1.27639939 3.82919817 0.47271619 4.99599733 -1.01953125 8.69140625 C-1.46490234 9.80064453 -1.91027344 10.90988281 -2.36914062 12.05273438 C-2.84544922 13.21095703 -3.32175781 14.36917969 -3.8125 15.5625 C-4.27720703 16.72458984 -4.74191406 17.88667969 -5.22070312 19.08398438 C-8.72392521 27.72392521 -8.72392521 27.72392521 -11 30 C-10.48041715 25.62065881 -9.94324258 21.31196609 -9 17 C-8.34 17 -7.68 17 -7 17 C-6.87625 16.29875 -6.7525 15.5975 -6.625 14.875 C-5.95731453 11.80364682 -5.13303617 8.9325642 -4 6 C-3.34 5.67 -2.68 5.34 -2 5 C-1.27840576 3.35636866 -0.60648579 1.68949614 0 0 Z " fill="#1E633B" transform="translate(772,671)"/>
<path d="M0 0 C0.66708984 0.11069824 1.33417969 0.22139648 2.02148438 0.33544922 C4.10068251 0.68741225 6.17527931 1.06010211 8.25 1.4375 C8.95640625 1.55931641 9.6628125 1.68113281 10.390625 1.80664062 C13.8466997 2.43829064 16.03567644 3.02378429 19 5 C12.83909886 6.09542636 8.21355956 5.75650933 2.1875 4.1875 C1.43791016 4.00896484 0.68832031 3.83042969 -0.08398438 3.64648438 C-3.51273133 2.79772396 -6.03696988 1.97535341 -9 0 C-5.90094404 -1.54952798 -3.37621798 -0.56609277 0 0 Z " fill="#256541" transform="translate(404,781)"/>
<path d="M0 0 C-1.05750847 3.06677455 -1.84635923 3.91619594 -4.75 5.5 C-6.35875 6.2425 -6.35875 6.2425 -8 7 C-9.010625 7.70125 -10.02125 8.4025 -11.0625 9.125 C-13.88336266 10.92555063 -15.67787742 11.81543763 -19 12 C-19.66 11.34 -20.32 10.68 -21 10 C-17.87852455 8.32666842 -14.75226502 6.66248284 -11.625 5 C-10.73554688 4.52304687 -9.84609375 4.04609375 -8.9296875 3.5546875 C-8.07890625 3.10351562 -7.228125 2.65234375 -6.3515625 2.1875 C-5.56604004 1.76855469 -4.78051758 1.34960938 -3.97119141 0.91796875 C-2 0 -2 0 0 0 Z " fill="#236841" transform="translate(417,674)"/>
<path d="M0 0 C1.32 0.66 2.64 1.32 4 2 C-0.12276549 3.67223282 -4.24856675 5.33684063 -8.375 7 C-10.1384375 7.71542969 -10.1384375 7.71542969 -11.9375 8.4453125 C-13.05898438 8.89648438 -14.18046875 9.34765625 -15.3359375 9.8125 C-16.37282715 10.23144531 -17.4097168 10.65039062 -18.47802734 11.08203125 C-21 12 -21 12 -23 12 C-22.4375 10.125 -22.4375 10.125 -21 8 C-18.1875 7.0625 -18.1875 7.0625 -16.34765625 6.6328125 C-13.18495033 5.78030275 -10.18193696 4.61195438 -7.125 3.4375 C-5.99320313 3.00308594 -4.86140625 2.56867187 -3.6953125 2.12109375 C-1.12640036 1.2535073 -1.12640036 1.2535073 0 0 Z " fill="#1F623C" transform="translate(599,863)"/>
<path d="M0 0 C2.17376855 0.23290377 4.33991035 0.53806294 6.5 0.875 C10.74956176 1.52544313 14.96780566 2.12215932 19.25 2.5 C23 3 23 3 25 5 C17.07704577 5.16303307 9.26831303 4.65117633 1.375 4 C-0.41744141 3.85691406 -0.41744141 3.85691406 -2.24609375 3.7109375 C-5.1643648 3.47747582 -8.08229576 3.24042446 -11 3 C-11 2.67 -11 2.34 -11 2 C-10.28972656 1.93941406 -9.57945312 1.87882813 -8.84765625 1.81640625 C-7.46900391 1.69072266 -7.46900391 1.69072266 -6.0625 1.5625 C-5.14597656 1.48128906 -4.22945312 1.40007813 -3.28515625 1.31640625 C-1.03840268 1.23955024 -1.03840268 1.23955024 0 0 Z " fill="#306D4B" transform="translate(531,635)"/>
<path d="M0 0 C2 2 2 2 2 6 C1.34 6 0.68 6 0 6 C0.08378906 6.67546875 0.16757813 7.3509375 0.25390625 8.046875 C0.35574219 8.93890625 0.45757812 9.8309375 0.5625 10.75 C0.66691406 11.63171875 0.77132812 12.5134375 0.87890625 13.421875 C0.99559095 15.90612985 0.6788544 17.63414177 0 20 C0.020625 20.804375 0.04125 21.60875 0.0625 22.4375 C-0.00863602 25.35407701 -0.79532907 27.36478233 -2 30 C-2.33 30 -2.66 30 -3 30 C-3.36886082 19.48063576 -2.68949387 10.24569094 0 0 Z " fill="#22613E" transform="translate(174,504)"/>
<path d="M0 0 C-0.33 0.66 -0.66 1.32 -1 2 C-4.125 2.66796875 -4.125 2.66796875 -8 3.1875 C-9.27875 3.36667969 -10.5575 3.54585937 -11.875 3.73046875 C-12.90625 3.81941406 -13.9375 3.90835938 -15 4 C-15.33 3.67 -15.66 3.34 -16 3 C-17.85174706 2.84213692 -19.7090911 2.74892644 -21.56640625 2.68359375 C-23.2534668 2.62075195 -23.2534668 2.62075195 -24.97460938 2.55664062 C-26.15861328 2.51732422 -27.34261719 2.47800781 -28.5625 2.4375 C-29.75037109 2.39431641 -30.93824219 2.35113281 -32.16210938 2.30664062 C-35.10794784 2.20016454 -38.0538743 2.09815159 -41 2 C-41 1.67 -41 1.34 -41 1 C-36.76829902 0.85543162 -32.53652963 0.7131151 -28.3046875 0.57275391 C-26.8694461 0.52484822 -25.43422398 0.47636067 -23.99902344 0.42724609 C-15.99686669 0.15381117 -8.00824219 -0.06268683 0 0 Z " fill="#377452" transform="translate(672,664)"/>
<path d="M0 0 C1.65 0 3.3 0 5 0 C0.93226011 4.32448087 -3.53656263 7.79990263 -8.3125 11.3125 C-9.42334961 12.13717773 -9.42334961 12.13717773 -10.55664062 12.97851562 C-12.36839676 14.32272179 -14.182859 15.66308744 -16 17 C-16.66 16.34 -17.32 15.68 -18 15 C-13.85480756 11.24566938 -9.90528066 7.74118625 -5 5 C-4.34 4.34 -3.68 3.68 -3 3 C-2.01 3 -1.02 3 0 3 C0 2.01 0 1.02 0 0 Z " fill="#1E603B" transform="translate(666,821)"/>
<path d="M0 0 C0 0.33 0 0.66 0 1 C-10.56 1 -21.12 1 -32 1 C-32 0.67 -32 0.34 -32 0 C-30.95199219 -0.09087891 -30.95199219 -0.09087891 -29.8828125 -0.18359375 C-28.97273438 -0.26738281 -28.06265625 -0.35117187 -27.125 -0.4375 C-26.22007812 -0.51871094 -25.31515625 -0.59992187 -24.3828125 -0.68359375 C-15.66409133 -1.84132558 -8.88680365 -2.33096489 0 0 Z " fill="#D8F1E5" transform="translate(516,656)"/>
<path d="M0 0 C0.66 0.33 1.32 0.66 2 1 C2 10.57 2 20.14 2 30 C-2.50964866 20.98070268 -1.81523989 9.75691441 0 0 Z " fill="#145831" transform="translate(283,510)"/>
<path d="M0 0 C1.19238281 0.22042969 2.38476562 0.44085937 3.61328125 0.66796875 C8.84511029 1.55168702 13.63344985 2.06716201 18.92578125 1.85546875 C19.25578125 2.51546875 19.58578125 3.17546875 19.92578125 3.85546875 C16.06874951 5.141146 12.60199674 4.7515794 8.61328125 4.48046875 C7.49276367 4.41472656 7.49276367 4.41472656 6.34960938 4.34765625 C2.15059746 4.08222266 -1.93204818 3.63253732 -6.07421875 2.85546875 C-4.15114604 0.09929594 -3.43312133 -0.16140469 0 0 Z " fill="#2C6D49" transform="translate(427.07421875,785.14453125)"/>
<path d="M0 0 C3.29160474 2.66417275 4.28680907 5.82974791 5.6875 9.75 C6.12449219 10.94109375 6.56148437 12.1321875 7.01171875 13.359375 C8.02114075 17.07787818 8.1818127 20.16719174 8 24 C5.46632064 20.19948096 3.97508828 16.2381008 2.3125 12 C1.97927734 11.18015625 1.64605469 10.3603125 1.30273438 9.515625 C0.99271484 8.72671875 0.68269531 7.9378125 0.36328125 7.125 C-0.06537231 6.04605469 -0.06537231 6.04605469 -0.50268555 4.9453125 C-1 3 -1 3 0 0 Z " fill="#20673D" transform="translate(189,656)"/>
<path d="M0 0 C0.66 0.33 1.32 0.66 2 1 C-1.86962619 5.91853586 -5.70158238 9.63754267 -11 13 C-11.66 13 -12.32 13 -13 13 C-13.28875 13.61875 -13.5775 14.2375 -13.875 14.875 C-15 17 -15 17 -17 19 C-19.125 18.625 -19.125 18.625 -21 18 C-14 12 -7 6 0 0 Z " fill="#236340" transform="translate(675,729)"/>
<path d="M0 0 C0.99 0.33 1.98 0.66 3 1 C2.74379316 2.6065676 2.46944129 4.2102483 2.1875 5.8125 C2.03667969 6.70582031 1.88585937 7.59914063 1.73046875 8.51953125 C0.94604607 11.18321256 0.11372201 12.25690322 -2 14 C-2.33 13.01 -2.66 12.02 -3 11 C-3.66 11 -4.32 11 -5 11 C-4.46884894 6.48521602 -2.63379708 3.65333143 0 0 Z " fill="#1C5A36" transform="translate(218,380)"/>
<path d="M0 0 C1.32 0.66 2.64 1.32 4 2 C1.41804795 3.62723025 -1.16548343 5.25185205 -3.75 6.875 C-4.47960937 7.33519531 -5.20921875 7.79539062 -5.9609375 8.26953125 C-7.02441406 8.93662109 -7.02441406 8.93662109 -8.109375 9.6171875 C-8.75874023 10.02565918 -9.40810547 10.43413086 -10.07714844 10.85498047 C-12.00993204 12.00591433 -13.97616502 13.01958189 -16 14 C-15.61983083 11.57951462 -15.34015423 10.31313133 -13.50952148 8.62792969 C-12.88634033 8.22993164 -12.26315918 7.83193359 -11.62109375 7.421875 C-10.94755859 6.98359375 -10.27402344 6.5453125 -9.58007812 6.09375 C-8.51950195 5.42859375 -8.51950195 5.42859375 -7.4375 4.75 C-6.72658203 4.29109375 -6.01566406 3.8321875 -5.28320312 3.359375 C-3.52886786 2.22906503 -1.76528659 1.11312897 0 0 Z " fill="#216A42" transform="translate(391,661)"/>
<path d="M0 0 C0.99 0.33 1.98 0.66 3 1 C-0.80351413 6.82665994 -4.76017897 12.48221873 -9 18 C-9.99 17.67 -10.98 17.34 -12 17 C-12 15 -12 15 -10.625 13.375 C-9 12 -9 12 -7 12 C-6.731875 11.278125 -6.46375 10.55625 -6.1875 9.8125 C-5.00098638 7.00233617 -3.72514361 4.51583443 -2 2 C-1.34 2 -0.68 2 0 2 C0 1.34 0 0.68 0 0 Z " fill="#1F643D" transform="translate(673,627)"/>
<path d="M0 0 C-7.65940351 5.10626901 -16.96670043 7.63378991 -26 9 C-26.33 8.34 -26.66 7.68 -27 7 C-23.7 6.67 -20.4 6.34 -17 6 C-17 5.34 -17 4.68 -17 4 C-11.81515277 1.14833402 -5.88546072 -1.96182024 0 0 Z " fill="#20623C" transform="translate(596,766)"/>
<path d="M0 0 C0 0.33 0 0.66 0 1 C1.17755859 0.98259766 1.17755859 0.98259766 2.37890625 0.96484375 C8.03719775 0.91624493 13.42878878 0.98705251 19 2 C16.5252919 4.4747081 15.79244504 4.29701309 12.375 4.3125 C4.76870255 4.20108952 -2.58410918 2.56319907 -10 1 C-6.25712373 -1.13181214 -4.21015871 -0.95685425 0 0 Z " fill="#1C603A" transform="translate(445,883)"/>
<path d="M0 0 C-3.77604154 2.51736102 -6.31005137 3.2628809 -10.8125 2.5625 C-11.534375 2.376875 -12.25625 2.19125 -13 2 C-13 2.66 -13 3.32 -13 4 C-15.31 4 -17.62 4 -20 4 C-20 3.67 -20 3.34 -20 3 C-21.65 2.67 -23.3 2.34 -25 2 C-25 1.67 -25 1.34 -25 1 C-16.64399592 -0.10102642 -8.41192037 -0.10094304 0 0 Z " fill="#256441" transform="translate(503,813)"/>
<path d="M0 0 C0.66 0 1.32 0 2 0 C1.43549966 3.6978863 0.02767305 5.24686904 -2.6875 7.75 C-6.62781532 11.52702297 -9.86855842 15.54006805 -13 20 C-13.33 18.68 -13.66 17.36 -14 16 C-13.34 16 -12.68 16 -12 16 C-12 15.34 -12 14.68 -12 14 C-11.34 14 -10.68 14 -10 14 C-9.67 12.68 -9.34 11.36 -9 10 C-8.34 10 -7.68 10 -7 10 C-6.67 9.01 -6.34 8.02 -6 7 C-5.34 7 -4.68 7 -4 7 C-4 6.01 -4 5.02 -4 4 C-3.34 4 -2.68 4 -2 4 C-2 3.34 -2 2.68 -2 2 C-1.34 2 -0.68 2 0 2 C0 1.34 0 0.68 0 0 Z " fill="#DAF2E5" transform="translate(355,714)"/>
<path d="M0 0 C2.23793576 3.35690365 3.65050338 6.8339284 5.125 10.5625 C5.40214844 11.24763672 5.67929687 11.93277344 5.96484375 12.63867188 C8 17.7466133 8 17.7466133 8 20 C7.01 20 6.02 20 5 20 C4.32645501 18.56570999 3.66140299 17.12742943 3 15.6875 C2.62875 14.88699219 2.2575 14.08648438 1.875 13.26171875 C1 11 1 11 1 8 C0.34 7.67 -0.32 7.34 -1 7 C-0.67 4.69 -0.34 2.38 0 0 Z " fill="#276843" transform="translate(396,542)"/>
<path d="M0 0 C0.66 0.33 1.32 0.66 2 1 C0.40554307 9.26218593 -2.26018069 17.06288986 -5 25 C-5.33 25 -5.66 25 -6 25 C-6.38186515 19.01744605 -5.0544569 14.58034914 -3 9 C-2.43213112 7.31429913 -1.86942766 5.62684724 -1.3125 3.9375 C-0.875 2.625 -0.4375 1.3125 0 0 Z " fill="#1B5A36" transform="translate(207,413)"/>
<path d="M0 0 C0.99 0 1.98 0 3 0 C3.24234375 0.99 3.4846875 1.98 3.734375 3 C5.81253626 11.59999036 5.81253626 11.59999036 9.3125 19.6875 C11 23 11 23 10.60546875 25.20703125 C10.40566406 25.79871094 10.20585937 26.39039063 10 27 C5.94645206 18.14882819 2.12472401 9.55114029 0 0 Z " fill="#DEF5E9" transform="translate(395,537)"/>
<path d="M0 0 C0 3.31069001 -0.58516985 4.40636187 -2.1875 7.23046875 C-2.63867188 8.03291016 -3.08984375 8.83535156 -3.5546875 9.66210938 C-4.03164062 10.49548828 -4.50859375 11.32886719 -5 12.1875 C-5.47695312 13.03248047 -5.95390625 13.87746094 -6.4453125 14.74804688 C-7.6245619 16.83531832 -8.80962497 18.91905982 -10 21 C-10.33 20.01 -10.66 19.02 -11 18 C-11.66 17.67 -12.32 17.34 -13 17 C-6.565 8.585 -6.565 8.585 0 0 Z " fill="#476D57" transform="translate(240,348)"/>
<path d="M0 0 C-3.59155477 3.59155477 -9.08804058 3.60346161 -14 4 C-17.75 3.125 -17.75 3.125 -20 2 C-20 1.67 -20 1.34 -20 1 C-13.02328842 -0.40697017 -7.02783812 -1.35150733 0 0 Z " fill="#2C714A" transform="translate(524,810)"/>
<path d="M0 0 C-10.36195453 3.62668409 -19.14417626 4.50754501 -30 4 C-30 3.67 -30 3.34 -30 3 C-25.75202223 2.29959257 -21.50138178 1.61691386 -17.25 0.9375 C-15.44015625 0.63875977 -15.44015625 0.63875977 -13.59375 0.33398438 C-12.43359375 0.15029297 -11.2734375 -0.03339844 -10.078125 -0.22265625 C-8.47565918 -0.48187866 -8.47565918 -0.48187866 -6.84082031 -0.74633789 C-4.20016422 -0.98212697 -2.48550551 -0.84161104 0 0 Z " fill="#C6E4D3" transform="translate(537,785)"/>
<path d="M0 0 C-1.61084285 1.91448415 -2.6102445 2.89645964 -5.05859375 3.546875 C-11.80512775 4.12293373 -18.27596705 3.75096588 -25 3 C-25 2.67 -25 2.34 -25 2 C-22.33397504 1.66068773 -19.66736986 1.32842824 -17 1 C-15.88431641 0.85691406 -15.88431641 0.85691406 -14.74609375 0.7109375 C-9.79111949 0.10772324 -4.99157504 -0.09075591 0 0 Z " fill="#CEEADB" transform="translate(530,887)"/>
<path d="M0 0 C0 0.33 0 0.66 0 1 C-2.41575607 1.50478485 -4.83244361 2.00397642 -7.25 2.5 C-8.27287109 2.71462891 -8.27287109 2.71462891 -9.31640625 2.93359375 C-12.64633121 3.61251049 -15.58332551 4 -19 4 C-19.33 3.01 -19.66 2.02 -20 1 C-6.3667426 -1.48063781 -6.3667426 -1.48063781 0 0 Z " fill="#20643D" transform="translate(542,782)"/>
<path d="M0 0 C4.9240432 4.7652031 9.44259642 9.88657333 14 15 C13.01 15.66 12.02 16.32 11 17 C10.67 16.01 10.34 15.02 10 14 C8.34051852 12.98812105 6.67419438 11.9873454 5 11 C5 10.34 5 9.68 5 9 C4.34 9 3.68 9 3 9 C3 7.68 3 6.36 3 5 C2.34 5 1.68 5 1 5 C0.67 3.35 0.34 1.7 0 0 Z " fill="#D3EDE0" transform="translate(254,773)"/>
<path d="M0 0 C-0.99 0.33 -1.98 0.66 -3 1 C-3 1.66 -3 2.32 -3 3 C-18.59080378 5.02103012 -18.59080378 5.02103012 -24 2 C-21.50072231 1.66029235 -19.00080405 1.32811968 -16.5 1 C-15.80390625 0.90460937 -15.1078125 0.80921875 -14.390625 0.7109375 C-9.55299871 0.0838378 -4.87818804 -0.08789528 0 0 Z " fill="#296B46" transform="translate(484,658)"/>
<path d="M0 0 C0.33 0 0.66 0 1 0 C1.66377644 12.16923482 -0.30798927 23.16236352 -3 35 C-3.33 35 -3.66 35 -4 35 C-3.88513575 32.62412376 -3.75841844 30.24984829 -3.625 27.875 C-3.57859375 26.87726562 -3.57859375 26.87726562 -3.53125 25.859375 C-3.27861168 21.56452355 -2.3642894 18.05023416 -1 14 C-0.72178875 11.54859141 -0.51442655 9.08820235 -0.375 6.625 C-0.30023437 5.37976563 -0.22546875 4.13453125 -0.1484375 2.8515625 C-0.09945312 1.91054688 -0.05046875 0.96953125 0 0 Z " fill="#D9F5E6" transform="translate(600,504)"/>
<path d="M0 0 C-3.26448246 3.26448246 -7.54626934 4.09730645 -12 5 C-14.52470838 4.96437801 -16.52734253 4.59128766 -19 4 C-15.91433716 1.94289144 -13.63014688 1.21653907 -10.0625 0.3125 C-8.50208984 -0.09548828 -8.50208984 -0.09548828 -6.91015625 -0.51171875 C-4.1294044 -0.97828785 -2.61519118 -0.93894816 0 0 Z " fill="#21663E" transform="translate(575,875)"/>
<path d="M0 0 C0.66 0 1.32 0 2 0 C0.43805642 3.63046346 -1.78965167 6.21193205 -4.4375 9.125 C-5.21996094 9.99382813 -6.00242187 10.86265625 -6.80859375 11.7578125 C-9 14 -9 14 -12 16 C-11.58181281 11.12114941 -9.55070071 9.22040297 -6 6 C-5.278125 5.236875 -4.55625 4.47375 -3.8125 3.6875 C-2 2 -2 2 0 2 C0 1.34 0 0.68 0 0 Z " fill="#22653E" transform="translate(706,783)"/>
<path d="M0 0 C0 3 0 3 -2.375 5.6875 C-5 8 -5 8 -7 8 C-7.185625 8.556875 -7.37125 9.11375 -7.5625 9.6875 C-9.66360714 13.06754192 -12.70665994 14.85140381 -16 17 C-16.66 16.67 -17.32 16.34 -18 16 C-15.75297964 13.89263258 -13.50186569 11.78968811 -11.25 9.6875 C-10.29867188 8.79514648 -10.29867188 8.79514648 -9.328125 7.88476562 C-6.32579774 5.08572094 -3.37142346 2.35829368 0 0 Z " fill="#2A6945" transform="translate(375,699)"/>
<path d="M0 0 C0.33 0 0.66 0 1 0 C1.53350857 3.41481264 2.04958186 6.83203896 2.5625 10.25 C2.71396484 11.21808594 2.86542969 12.18617188 3.02148438 13.18359375 C3.16005859 14.11816406 3.29863281 15.05273438 3.44140625 16.015625 C3.57232666 16.87446289 3.70324707 17.73330078 3.83813477 18.61816406 C4.0007082 21.01042114 3.71976511 22.72802578 3 25 C2.67 23.02 2.34 21.04 2 19 C1.34 19 0.68 19 0 19 C0 12.73 0 6.46 0 0 Z " fill="#D0EDDE" transform="translate(171,583)"/>
<path d="M0 0 C0.99 0 1.98 0 3 0 C3.06058594 0.72445312 3.12117187 1.44890625 3.18359375 2.1953125 C3.70751006 8.34697433 3.70751006 8.34697433 4.6875 14.4375 C5.05019967 17.41163729 4.41688638 18.4430901 3 21 C2.49432271 18.43850372 1.99529868 15.87600535 1.5 13.3125 C1.35691406 12.59126953 1.21382812 11.87003906 1.06640625 11.12695312 C0.34428113 7.36158641 -0.1824976 3.85526187 0 0 Z " fill="#1B5E39" transform="translate(174,599)"/>
<path d="M0 0 C-1 3 -1 3 -3.14453125 4.1328125 C-4.02496094 4.46023438 -4.90539062 4.78765625 -5.8125 5.125 C-6.68519531 5.45757813 -7.55789063 5.79015625 -8.45703125 6.1328125 C-10.62862868 6.87335725 -12.76504539 7.48945093 -15 8 C-15.33 7.01 -15.66 6.02 -16 5 C-13.70967689 4.16280617 -11.41789043 3.3301071 -9.125 2.5 C-8.47402344 2.26152344 -7.82304688 2.02304687 -7.15234375 1.77734375 C-2.2265625 0 -2.2265625 0 0 0 Z " fill="#276C45" transform="translate(579,791)"/>
<path d="M0 0 C0.33 0.99 0.66 1.98 1 3 C-0.08520508 4.48168945 -0.08520508 4.48168945 -2 6 C-5.00268555 6.34057617 -5.00268555 6.34057617 -8.63671875 6.29296875 C-9.93544922 6.28330078 -11.23417969 6.27363281 -12.57226562 6.26367188 C-13.94401639 6.23860585 -15.31576118 6.21321101 -16.6875 6.1875 C-18.07094924 6.1724502 -19.45441401 6.1587623 -20.83789062 6.14648438 C-24.22565207 6.11107223 -27.61263139 6.06168054 -31 6 C-31 5.67 -31 5.34 -31 5 C-21.43 4.67 -11.86 4.34 -2 4 C-1.34 2.68 -0.68 1.36 0 0 Z " fill="#D1EDDD" transform="translate(666,641)"/>
<path d="M0 0 C4.94953972 7.42430959 4.27045976 17.3903644 4 26 C1.70734438 22.28165937 1.35080597 18.37605334 0.875 14.125 C0.78863281 13.43019531 0.70226562 12.73539063 0.61328125 12.01953125 C0.13540405 7.99170912 -0.08896677 4.05434288 0 0 Z " fill="#D1EEE0" transform="translate(391,509)"/>
<path d="M0 0 C2.09749995 2.35968744 2.96905704 3.54616994 3.1875 6.75 C3.125625 7.4925 3.06375 8.235 3 9 C3.66 9 4.32 9 5 9 C7.19140625 16.734375 7.19140625 16.734375 6 21 C4.79717903 18.068542 3.61545727 15.12902758 2.4375 12.1875 C2.09525391 11.35412109 1.75300781 10.52074219 1.40039062 9.66210938 C0.92182617 8.45844727 0.92182617 8.45844727 0.43359375 7.23046875 C0.13509521 6.49207764 -0.16340332 5.75368652 -0.47094727 4.99291992 C-1 3 -1 3 0 0 Z " fill="#246541" transform="translate(294,579)"/>
<path d="M0 0 C0.33 0 0.66 0 1 0 C0.88545196 2.87575868 0.7587153 5.75012112 0.625 8.625 C0.5940625 9.43324219 0.563125 10.24148438 0.53125 11.07421875 C0.21411444 17.57549765 -0.67155963 22.88457048 -5 28 C-4.2060351 21.97422428 -3.09159025 16.02869799 -1.9375 10.0625 C-1.75123047 9.09248047 -1.56496094 8.12246094 -1.37304688 7.12304688 C-0.91683597 4.74841064 -0.4591177 2.37407563 0 0 Z " fill="#CFEADB" transform="translate(707,545)"/>
<path d="M0 0 C0.66 0.66 1.32 1.32 2 2 C-8.37357631 4.48063781 -8.37357631 4.48063781 -14 3 C-13 1 -13 1 -11.07421875 0.33203125 C-10.28660156 0.16058594 -9.49898438 -0.01085937 -8.6875 -0.1875 C-7.90761719 -0.36667969 -7.12773437 -0.54585937 -6.32421875 -0.73046875 C-3.85839502 -1.01642142 -2.31944307 -0.85557282 0 0 Z " fill="#1E663D" transform="translate(459,639)"/>
<path d="M0 0 C0.99 0 1.98 0 3 0 C1.23536928 6.10737442 -0.69557475 12.07433507 -3 18 C-3.33 18 -3.66 18 -4 18 C-4.49088534 11.78211907 -2.77966648 5.55933295 0 0 Z " fill="#286945" transform="translate(698,575)"/>
<path d="M0 0 C-0.96355353 12.66970387 -0.96355353 12.66970387 -2 18 C-3.5625 16.3125 -3.5625 16.3125 -5 14 C-4.75 11.5625 -4.75 11.5625 -4 9 C-3.40075494 6.20352306 -3 3.87126759 -3 1 C-1 0 -1 0 0 0 Z " fill="#1B5F39" transform="translate(198,451)"/>
<path d="M0 0 C0.33 0 0.66 0 1 0 C1.49914707 6.73848545 0.19940966 12.0098644 -3 18 C-3.66 18.33 -4.32 18.66 -5 19 C-4.39297368 12.3227105 -2.22368606 6.29872004 0 0 Z " fill="#CAE5D5" transform="translate(209,414)"/>
<path d="M0 0 C0.99 0.33 1.98 0.66 3 1 C1.61219205 4.89006773 -0.2152227 7.96558708 -2.625 11.3125 C-3.25664063 12.19550781 -3.88828125 13.07851563 -4.5390625 13.98828125 C-5.02117188 14.65214844 -5.50328125 15.31601562 -6 16 C-7 13 -7 13 -6.22265625 11.17578125 C-5.1484375 9.45052083 -4.07421875 7.72526042 -3 6 C-2.34 6 -1.68 6 -1 6 C-0.67 4.02 -0.34 2.04 0 0 Z " fill="#20623D" transform="translate(737,739)"/>
<path d="M0 0 C0.33 0.66 0.66 1.32 1 2 C-2.77339973 6.95258714 -6.90789714 10.43679155 -12 14 C-8.91641675 7.7246376 -6.02574577 3.56066796 0 0 Z " fill="#1B643B" transform="translate(383,693)"/>
<path d="M0 0 C7.26 0.99 14.52 1.98 22 3 C22 3.33 22 3.66 22 4 C19.29139335 4.05429278 16.58389099 4.09381211 13.875 4.125 C13.11445313 4.14175781 12.35390625 4.15851562 11.5703125 4.17578125 C6.96729269 4.21546246 3.33535996 3.75907577 -1 2 C-0.67 1.34 -0.34 0.68 0 0 Z " fill="#D3EDE0" transform="translate(437,884)"/>
<path d="M0 0 C0.33 0.99 0.66 1.98 1 3 C2.051875 3.103125 3.10375 3.20625 4.1875 3.3125 C7.91274033 3.98426465 10.02032107 4.72142199 13 7 C13.33 7.99 13.66 8.98 14 10 C8.31497465 8.35433477 3.23318364 5.70967216 -2 3 C-2 2.34 -2 1.68 -2 1 C-1.34 0.67 -0.68 0.34 0 0 Z " fill="#266843" transform="translate(353,850)"/>
<path d="M0 0 C0.66 0.33 1.32 0.66 2 1 C-3.16174055 4.72207142 -7.67677186 7.83859075 -14 9 C-14.66 8.67 -15.32 8.34 -16 8 C-13.37964982 6.63610475 -10.75443001 5.28367827 -8.125 3.9375 C-7.37863281 3.54755859 -6.63226563 3.15761719 -5.86328125 2.75585938 C-4.79013672 2.20961914 -4.79013672 2.20961914 -3.6953125 1.65234375 C-3.03547363 1.31195068 -2.37563477 0.97155762 -1.69580078 0.62084961 C-1.13618652 0.41596924 -0.57657227 0.21108887 0 0 Z " fill="#D0EBDB" transform="translate(410,655)"/>
<path d="M0 0 C0 0.99 0 1.98 0 3 C-2.66666667 3.66666667 -5.33333333 4.33333333 -8 5 C-8.6703125 5.1959375 -9.340625 5.391875 -10.03125 5.59375 C-13.10939777 6.22892335 -15.93646859 5.53022659 -19 5 C-15.74358332 3.19523895 -12.54663205 2.26051195 -8.9375 1.375 C-7.37322266 0.98441406 -7.37322266 0.98441406 -5.77734375 0.5859375 C-3 0 -3 0 0 0 Z " fill="#296B47" transform="translate(713,656)"/>
<path d="M0 0 C0.88336837 2.4667645 1.1312406 3.63859372 0.22265625 6.140625 C-0.16019531 6.83671875 -0.54304687 7.5328125 -0.9375 8.25 C-1.31777344 8.95640625 -1.69804687 9.6628125 -2.08984375 10.390625 C-2.39019531 10.92171875 -2.69054687 11.4528125 -3 12 C-3.66 12 -4.32 12 -5 12 C-5.33 13.98 -5.66 15.96 -6 18 C-6.99 18.33 -7.98 18.66 -9 19 C-7.6077541 14.37324343 -5.70479016 10.35313769 -3.375 6.125 C-2.74335938 4.97257812 -2.11171875 3.82015625 -1.4609375 2.6328125 C-0.97882813 1.76398438 -0.49671875 0.89515625 0 0 Z " fill="#32704D" transform="translate(210,393)"/>
<path d="M0 0 C0.66 0.33 1.32 0.66 2 1 C-3.60627803 8.48071749 -3.60627803 8.48071749 -7.0234375 9.75390625 C-8.9375 10 -8.9375 10 -12 10 C-8.40945767 6.11024581 -4.26101118 3.10267805 0 0 Z " fill="#D8F1E3" transform="translate(659,830)"/>
<path d="M0 0 C-1.50349377 3.66786393 -3.63728792 5.68910393 -6.625 8.25 C-7.44226563 8.95640625 -8.25953125 9.6628125 -9.1015625 10.390625 C-9.72804688 10.92171875 -10.35453125 11.4528125 -11 12 C-11.66 11.67 -12.32 11.34 -13 11 C-12.67 10.01 -12.34 9.02 -12 8 C-11.01 8 -10.02 8 -9 8 C-8.773125 7.4225 -8.54625 6.845 -8.3125 6.25 C-6.47530093 3.10051589 -3.84497849 0 0 0 Z " fill="#2A6846" transform="translate(683,809)"/>
<path d="M0 0 C7.59 1.32 15.18 2.64 23 4 C23 4.33 23 4.66 23 5 C14.40858218 5.43995881 7.53146548 5.46309065 0 1 C0 0.67 0 0.34 0 0 Z " fill="#DBF4E7" transform="translate(404,784)"/>
<path d="M0 0 C-3.05253102 2.40875078 -6.21351847 4.32543798 -9.625 6.1875 C-10.58664062 6.71730469 -11.54828125 7.24710938 -12.5390625 7.79296875 C-15 9 -15 9 -17 9 C-16 6 -16 6 -14.2578125 4.90234375 C-13.55398438 4.58394531 -12.85015625 4.26554688 -12.125 3.9375 C-3.18005244 -0.17189473 -3.18005244 -0.17189473 0 0 Z " fill="#266542" transform="translate(653,740)"/>
<path d="M0 0 C1.51553092 3.97450493 0.49888623 7.20481149 -0.4375 11.25 C-0.72496094 12.51328125 -1.01242187 13.7765625 -1.30859375 15.078125 C-1.53675781 16.04234375 -1.76492188 17.0065625 -2 18 C-2.66 17.34 -3.32 16.68 -4 16 C-3.9765625 13.94140625 -3.9765625 13.94140625 -3.625 11.5625 C-3.25796693 8.97192939 -3 6.62633415 -3 4 C-1.5 1.8125 -1.5 1.8125 0 0 Z " fill="#326447" transform="translate(789,609)"/>
<path d="M0 0 C0.66 0 1.32 0 2 0 C1.3503125 1.8253125 1.3503125 1.8253125 0.6875 3.6875 C-1.32426904 9.68448771 -2.65442688 15.82563257 -4 22 C-4.33 22 -4.66 22 -5 22 C-5.43664818 14.28588216 -4.35330092 6.52995138 0 0 Z " fill="#CBE9DA" transform="translate(185,447)"/>
<path d="M0 0 C-1 3 -1 3 -3.50390625 4.38671875 C-4.51324219 4.81597656 -5.52257812 5.24523437 -6.5625 5.6875 C-7.57441406 6.12449219 -8.58632813 6.56148437 -9.62890625 7.01171875 C-10.41136719 7.33785156 -11.19382812 7.66398438 -12 8 C-12.33 7.01 -12.66 6.02 -13 5 C-11.39967863 4.15930585 -9.79458829 3.32768495 -8.1875 2.5 C-6.84751953 1.80390625 -6.84751953 1.80390625 -5.48046875 1.09375 C-3 0 -3 0 0 0 Z " fill="#1B6339" transform="translate(616,856)"/>
<path d="M0 0 C-2.43932788 3.65899181 -3.86593609 3.84246211 -8 5 C-8.721875 5.2475 -9.44375 5.495 -10.1875 5.75 C-12 6 -12 6 -15 4 C-12.87875034 3.13656176 -10.75286928 2.28449352 -8.625 1.4375 C-6.84996094 0.72400391 -6.84996094 0.72400391 -5.0390625 -0.00390625 C-2 -1 -2 -1 0 0 Z " fill="#D1ECDD" transform="translate(595,768)"/>
<path d="M0 0 C-3.55041418 3.23714234 -6.11962757 4.89390495 -11 5 C-12.6796875 3.50390625 -12.6796875 3.50390625 -14 2 C-12.42085985 1.46658816 -10.83645613 0.94874237 -9.25 0.4375 C-8.36828125 0.14746094 -7.4865625 -0.14257812 -6.578125 -0.44140625 C-3.92165684 -1.01697435 -2.52968894 -0.89248371 0 0 Z " fill="#1E603B" transform="translate(727,653)"/>
<path d="M0 0 C2.04355211 3.06532816 2.38658825 4.38354689 2.75 7.9375 C2.84796875 8.79214844 2.9459375 9.64679687 3.046875 10.52734375 C2.99549449 13.23766556 2.38633814 14.70187794 1 17 C0.66104344 15.27192682 0.32908475 13.54248026 0 11.8125 C-0.185625 10.84957031 -0.37125 9.88664063 -0.5625 8.89453125 C-0.97069173 6.19390558 -1.15486792 3.72470754 -1 1 C-0.67 0.67 -0.34 0.34 0 0 Z " fill="#1D633B" transform="translate(286,544)"/>
<path d="M0 0 C0.33 1.32 0.66 2.64 1 4 C0.34 4 -0.32 4 -1 4 C-1.0825 4.7425 -1.165 5.485 -1.25 6.25 C-2.15190808 9.55699631 -3.53513808 10.68452365 -6 13 C-7.23512079 15.13309192 -7.23512079 15.13309192 -8 17 C-8.66 17 -9.32 17 -10 17 C-8.6243563 13.14958019 -6.83312893 10.1183679 -4.4375 6.8125 C-2.02799361 3.52121677 -2.02799361 3.52121677 0 0 Z " fill="#D1ECDE" transform="translate(740,740)"/>
<path d="M0 0 C7.68654573 0.25621819 13.35216058 1.03686496 20 5 C16.94371936 5.97812873 15.14722553 6.00835683 12.109375 5.00390625 C11.40039062 4.77509766 10.69140625 4.54628906 9.9609375 4.31054688 C9.23132813 4.06369141 8.50171875 3.81683594 7.75 3.5625 C7.00492187 3.31951172 6.25984375 3.07652344 5.4921875 2.82617188 C3.65841765 2.22667019 1.82877996 1.61455513 0 1 C0 0.67 0 0.34 0 0 Z " fill="#3C7655" transform="translate(401,874)"/>
<path d="M0 0 C-1.15911039 3.47733117 -1.68261541 3.71562011 -4.8125 5.3125 C-5.84310547 5.86357422 -5.84310547 5.86357422 -6.89453125 6.42578125 C-9 7 -9 7 -11.26171875 6.10546875 C-11.83535156 5.74066406 -12.40898438 5.37585938 -13 5 C-11.21046815 4.16209211 -9.41830305 3.32980604 -7.625 2.5 C-6.62726562 2.0359375 -5.62953125 1.571875 -4.6015625 1.09375 C-2 0 -2 0 0 0 Z " fill="#236642" transform="translate(597,783)"/>
<path d="M0 0 C0.66 0.99 1.32 1.98 2 3 C-0.97 6.63 -3.94 10.26 -7 14 C-7.33 13.01 -7.66 12.02 -8 11 C-6.81930497 9.49133413 -5.62725764 7.98823971 -4.34765625 6.5625 C-2.6003444 4.53663119 -1.30213967 2.33014467 0 0 Z " fill="#1F613C" transform="translate(720,765)"/>
<path d="M0 0 C3.96 1.98 7.92 3.96 12 6 C12 6.66 12 7.32 12 8 C10.37433394 7.52309796 8.74948689 7.04340334 7.125 6.5625 C6.22007812 6.29566406 5.31515625 6.02882813 4.3828125 5.75390625 C2 5 2 5 0 4 C0 2.68 0 1.36 0 0 Z " fill="#276643" transform="translate(359,765)"/>
<path d="M0 0 C0.99 0.33 1.98 0.66 3 1 C-1.29 3.97 -5.58 6.94 -10 10 C-10.33 9.01 -10.66 8.02 -11 7 C-5.375 3 -5.375 3 -2 3 C-2 2.34 -2 1.68 -2 1 C-1.34 0.67 -0.68 0.34 0 0 Z " fill="#D9F4E5" transform="translate(387,688)"/>
<path d="M0 0 C0.66 0 1.32 0 2 0 C0.57250019 3.79049707 -1.16236542 7.27122456 -3.125 10.8125 C-3.93324219 12.27623047 -3.93324219 12.27623047 -4.7578125 13.76953125 C-5.37269531 14.87361328 -5.37269531 14.87361328 -6 16 C-6.9700528 13.41907165 -7.14009383 12.34107231 -6.07421875 9.74609375 C-5.61660156 8.98425781 -5.15898437 8.22242188 -4.6875 7.4375 C-4.23761719 6.67308594 -3.78773438 5.90867187 -3.32421875 5.12109375 C-2.24645593 3.39476569 -1.12889071 1.69333607 0 0 Z " fill="#DAF3E5" transform="translate(215,381)"/>
<path d="M0 0 C0.99 0.33 1.98 0.66 3 1 C0.03 5.29 -2.94 9.58 -6 14 C-7 10 -7 10 -5.6875 7.25 C-5.130625 6.5075 -4.57375 5.765 -4 5 C-3.34 5 -2.68 5 -2 5 C-1.34 3.35 -0.68 1.7 0 0 Z " fill="#DFF7EB" transform="translate(338,734)"/>
<path d="M0 0 C1.04605655 3.70511631 1.02032575 6.23264339 0 10 C-1.9375 12.375 -1.9375 12.375 -4 14 C-4.66 14 -5.32 14 -6 14 C-4.50829734 9.0276578 -2.39542583 4.58154261 0 0 Z " fill="#DAF1E2" transform="translate(689,604)"/>
<path d="M0 0 C-5.93661416 2.41862058 -11.68878497 3.9007105 -18 5 C-18 4.34 -18 3.68 -18 3 C-16.33667253 2.52476358 -14.67303462 2.05058565 -13.0078125 1.58203125 C-11.09845923 1.02854168 -9.20475967 0.42187176 -7.3125 -0.1875 C-4.07562733 -0.9814499 -3.03224991 -0.93147546 0 0 Z " fill="#DAF3E7" transform="translate(540,606)"/>
<path d="M0 0 C2.60574338 1.12145918 5.20959056 2.24699797 7.8125 3.375 C8.55048828 3.69210937 9.28847656 4.00921875 10.04882812 4.3359375 C10.76103516 4.6453125 11.47324219 4.9546875 12.20703125 5.2734375 C12.8616333 5.55622559 13.51623535 5.83901367 14.19067383 6.13037109 C16 7 16 7 19 9 C13.97786106 8.49778611 10.43490436 7.35899168 6 5 C4.01132287 4.30028027 2.01391949 3.62335603 0 3 C0 2.01 0 1.02 0 0 Z " fill="#21603C" transform="translate(438,599)"/>
<path d="M0 0 C0.66 0.33 1.32 0.66 2 1 C-0.31 5.62 -2.62 10.24 -5 15 C-5.33 15 -5.66 15 -6 15 C-5.61471495 8.83543922 -3.52913975 5.01372252 0 0 Z " fill="#DCF5E9" transform="translate(590,553)"/>
<path d="M0 0 C3.125 0.375 3.125 0.375 6 1 C3.70423322 3.29576678 2.09653751 4.0638375 -1 5 C-3.8125 4.625 -3.8125 4.625 -6 4 C-5.38125 3.71125 -4.7625 3.4225 -4.125 3.125 C-1.86674235 2.06279958 -1.86674235 2.06279958 0 0 Z M-8 4 C-6 5 -6 5 -6 5 Z M-10 5 C-8 6 -8 6 -8 6 Z " fill="#1D623C" transform="translate(624,751)"/>
<path d="M0 0 C0.66 0.33 1.32 0.66 2 1 C-2 7.57142857 -2 7.57142857 -6 9 C-6.99 8.34 -7.98 7.68 -9 7 C-6.03 4.69 -3.06 2.38 0 0 Z " fill="#DFF5E8" transform="translate(380,671)"/>
<path d="M0 0 C0.66 0.33 1.32 0.66 2 1 C-1.51822249 5.43601966 -5.75390186 6.52033129 -11 8 C-11 7.01 -11 6.02 -11 5 C-10.113125 4.731875 -9.22625 4.46375 -8.3125 4.1875 C-4.99367449 3.12527368 -4.99367449 3.12527368 -2.25 1.3125 C-1.13625 0.6628125 -1.13625 0.6628125 0 0 Z " fill="#216740" transform="translate(419,648)"/>
<path d="M0 0 C0 3.49505741 -0.67952019 4.41072187 -2.6875 7.1875 C-3.18636719 7.90292969 -3.68523438 8.61835937 -4.19921875 9.35546875 C-6 11 -6 11 -8.70703125 11.23828125 C-9.84205078 11.12033203 -9.84205078 11.12033203 -11 11 C-7.33333333 7.33333333 -3.66666667 3.66666667 0 0 Z " fill="#286844" transform="translate(573,583)"/>
<path d="M0 0 C1.10546875 1.69140625 1.10546875 1.69140625 2 4 C1.42578125 6.40234375 1.42578125 6.40234375 0.3125 8.9375 C-0.06777344 9.81019531 -0.44804687 10.68289063 -0.83984375 11.58203125 C-2.07816559 14.16291077 -3.41134131 16.61701196 -5 19 C-6 17 -6 17 -5.29296875 14.609375 C-4.92816406 13.66578125 -4.56335938 12.7221875 -4.1875 11.75 C-3.81496094 10.76902344 -3.44242188 9.78804688 -3.05859375 8.77734375 C-2.70925781 7.86082031 -2.35992187 6.94429688 -2 6 C-1.32318977 4.00340982 -0.65038501 2.00535378 0 0 Z " fill="#36704F" transform="translate(189,439)"/>
<path d="M0 0 C1.65 0 3.3 0 5 0 C5 0.66 5 1.32 5 2 C5.763125 1.649375 6.52625 1.29875 7.3125 0.9375 C10 0 10 0 13 1 C11.35 2.32 9.7 3.64 8 5 C4.62496331 3.8141763 2.35277269 2.72426311 0 0 Z " fill="#306A49" transform="translate(362,675)"/>
<path d="M0 0 C-2.22732451 3.34098676 -3.24862913 3.90203779 -7 5 C-7.99 4.67 -8.98 4.34 -10 4 C-10.33 3.34 -10.66 2.68 -11 2 C-9.73392393 1.46770674 -8.46189588 0.94955456 -7.1875 0.4375 C-6.47980469 0.14746094 -5.77210938 -0.14257812 -5.04296875 -0.44140625 C-3 -1 -3 -1 0 0 Z " fill="#296E45" transform="translate(739,648)"/>
<path d="M0 0 C-2.28929053 1.17154293 -4.58118362 2.33738074 -6.875 3.5 C-7.52597656 3.83386719 -8.17695312 4.16773438 -8.84765625 4.51171875 C-13.7734375 7 -13.7734375 7 -16 7 C-16 6.34 -16 5.68 -16 5 C-14.68 5 -13.36 5 -12 5 C-12 4.34 -12 3.68 -12 3 C-10.75823305 2.29773859 -9.50614401 1.61370891 -8.25 0.9375 C-7.55390625 0.55464844 -6.8578125 0.17179688 -6.140625 -0.22265625 C-3.63859372 -1.1312406 -2.4667645 -0.88336837 0 0 Z " fill="#D5F0E2" transform="translate(752,640)"/>
<path d="M0 0 C0.66 0 1.32 0 2 0 C0.55218207 3.44428265 -1.27694609 5.36130962 -4.125 7.75 C-5.21167969 8.67039062 -5.21167969 8.67039062 -6.3203125 9.609375 C-6.87460937 10.06828125 -7.42890625 10.5271875 -8 11 C-8.33 10.01 -8.66 9.02 -9 8 C-7 5 -7 5 -4 4 C-3.67 3.34 -3.34 2.68 -3 2 C-2.01 2 -1.02 2 0 2 C0 1.34 0 0.68 0 0 Z " fill="#DCF3E6" transform="translate(786,610)"/>
<path d="M0 0 C2 2 2 2 2.046875 4.27734375 C1.94890625 5.15519531 1.8509375 6.03304687 1.75 6.9375 C1.66234375 7.81277344 1.5746875 8.68804688 1.484375 9.58984375 C1 12 1 12 -1 15 C-1.02685412 12.68756208 -1.04632841 10.3750373 -1.0625 8.0625 C-1.07410156 6.77472656 -1.08570313 5.48695313 -1.09765625 4.16015625 C-1 1 -1 1 0 0 Z " fill="#2A6A45" transform="translate(704,551)"/>
<path d="M0 0 C1.65 0 3.3 0 5 0 C1.83525695 3.25516428 -1.32752791 6.32008793 -5 9 C-5.66 9 -6.32 9 -7 9 C-5.84826645 6.53199953 -4.95216435 4.95216435 -3 3 C-2.01 3 -1.02 3 0 3 C0 2.01 0 1.02 0 0 Z " fill="#266742" transform="translate(666,821)"/>
<path d="M0 0 C1.72357119 2.58535679 2.44735018 4.03811614 3.1875 6.9375 C3.36667969 7.60652344 3.54585937 8.27554688 3.73046875 8.96484375 C4.03268678 11.24680888 3.68756692 12.82026659 3 15 C-1.77676538 5.77448747 -1.77676538 5.77448747 0 0 Z " fill="#236240" transform="translate(194,570)"/>
<path d="M0 0 C0.66 0.33 1.32 0.66 2 1 C2.04241723 3.33294775 2.04092937 5.66702567 2 8 C1.67 8.33 1.34 8.66 1 9 C0.76636119 10.84891946 0.58696365 12.70488031 0.4375 14.5625 C0.35371094 15.57441406 0.26992188 16.58632813 0.18359375 17.62890625 C0.12300781 18.41136719 0.06242187 19.19382812 0 20 C-0.33 20 -0.66 20 -1 20 C-1.18451025 6.3667426 -1.18451025 6.3667426 0 0 Z " fill="#236941" transform="translate(283,510)"/>
<path d="M0 0 C1.32 0 2.64 0 4 0 C5.46845421 5.47332932 4.44038726 8.11922548 2 13 C0.53273202 9.18510326 1.56663581 6.70988378 3 3 C1.68 3 0.36 3 -1 3 C-0.67 2.01 -0.34 1.02 0 0 Z " fill="#256742" transform="translate(212,390)"/>
<path d="M0 0 C0.66 0 1.32 0 2 0 C1.25 5.75 1.25 5.75 -1 8 C-3.125 8.625 -3.125 8.625 -5 9 C-3.7580393 5.56072421 -2.44259716 2.74792181 0 0 Z " fill="#3A694E" transform="translate(227,366)"/>
<path d="M0 0 C1.35158203 0.15275391 1.35158203 0.15275391 2.73046875 0.30859375 C3.41753906 0.39238281 4.10460937 0.47617187 4.8125 0.5625 C4.4825 1.2225 4.1525 1.8825 3.8125 2.5625 C0.1825 2.5625 -3.4475 2.5625 -7.1875 2.5625 C-7.5175 1.9025 -7.8475 1.2425 -8.1875 0.5625 C-4.98734144 -0.50421952 -3.30205706 -0.38595472 0 0 Z " fill="#1A6339" transform="translate(422.1875,812.4375)"/>
<path d="M0 0 C4.29 0.66 8.58 1.32 13 2 C9.54785147 4.30143236 8.76520676 4.13833854 4.8125 3.625 C3.46091797 3.45871094 3.46091797 3.45871094 2.08203125 3.2890625 C1.39496094 3.19367187 0.70789063 3.09828125 0 3 C0 2.01 0 1.02 0 0 Z " fill="#20633E" transform="translate(397,808)"/>
<path d="M0 0 C4.09176955 0.30309404 7.46165096 0.87699058 11 3 C5.96488101 4.0070238 2.76052962 3.97387813 -2 2 C-1.34 1.34 -0.68 0.68 0 0 Z " fill="#31704E" transform="translate(397,780)"/>
<path d="M0 0 C0.66 0.99 1.32 1.98 2 3 C-0.31 6.3 -2.62 9.6 -5 13 C-6 9 -6 9 -5 7 C-4.34 7 -3.68 7 -3 7 C-2.690625 6.030625 -2.38125 5.06125 -2.0625 4.0625 C-1 1 -1 1 0 0 Z " fill="#246540" transform="translate(728,754)"/>
<path d="M0 0 C0 0.99 0 1.98 0 3 C-0.66 3 -1.32 3 -2 3 C-2.433125 3.928125 -2.433125 3.928125 -2.875 4.875 C-4 7 -4 7 -6 9 C-7.32 8.67 -8.64 8.34 -10 8 C-6.7 5.36 -3.4 2.72 0 0 Z " fill="#296945" transform="translate(664,739)"/>
<path d="M0 0 C1.32 0.33 2.64 0.66 4 1 C5.265625 3.50390625 5.265625 3.50390625 6.25 6.5625 C6.58515625 7.57441406 6.9203125 8.58632813 7.265625 9.62890625 C7.62914062 10.80259766 7.62914062 10.80259766 8 12 C7.01 12.495 7.01 12.495 6 13 C4.02 8.71 2.04 4.42 0 0 Z " fill="#20633D" transform="translate(207,702)"/>
<path d="M0 0 C0.66 0.33 1.32 0.66 2 1 C-4.07792208 7.24675325 -4.07792208 7.24675325 -7 9 C-7.99 8.67 -8.98 8.34 -10 8 C-6.7 5.36 -3.4 2.72 0 0 Z " fill="#276B44" transform="translate(773,624)"/>
<path d="M0 0 C0.33 0 0.66 0 1 0 C1.33 4.29 1.66 8.58 2 13 C1.01 13 0.02 13 -1 13 C-2.42857143 4.57142857 -2.42857143 4.57142857 0 0 Z " fill="#1E633B" transform="translate(191,539)"/>
<path d="M0 0 C0.66 0.33 1.32 0.66 2 1 C-0.31 3.64 -2.62 6.28 -5 9 C-5.99 8.34 -6.98 7.68 -8 7 C-5.36 4.69 -2.72 2.38 0 0 Z " fill="#DDF4E7" transform="translate(669,822)"/>
<path d="M0 0 C4.95 0.33 9.9 0.66 15 1 C15 1.99 15 2.98 15 4 C9.76119922 3.44854729 5.02649303 2.57077907 0 1 C0 0.67 0 0.34 0 0 Z " fill="#C0DFD0" transform="translate(384,804)"/>
<path d="M0 0 C-1.375 2 -1.375 2 -4 4 C-7.3580469 4.35791096 -10.63536357 4.23115823 -14 4 C-11.37350692 2.24900461 -9.38191413 1.30690675 -6.4375 0.3125 C-5.65246094 0.04050781 -4.86742187 -0.23148438 -4.05859375 -0.51171875 C-2 -1 -2 -1 0 0 Z " fill="#2A6B46" transform="translate(563,798)"/>
<path d="M0 0 C0.66 0.33 1.32 0.66 2 1 C0.35 2.98 -1.3 4.96 -3 7 C-4.32 6.67 -5.64 6.34 -7 6 C-4.69 4.02 -2.38 2.04 0 0 Z " fill="#105930" transform="translate(360,714)"/>
<path d="M0 0 C1.65 0 3.3 0 5 0 C1.17058011 3.32993034 -3.37522222 5.05324525 -8 7 C-8 6.01 -8 5.02 -8 4 C-4.91190305 2.23537317 -3.76687864 2 0 2 C0 1.34 0 0.68 0 0 Z " fill="#DAF3E6" transform="translate(412,673)"/>
<path d="M0 0 C4.29 2.31 8.58 4.62 13 7 C9.72725418 8.09091527 9.0497412 7.98028192 5.9375 6.875 C5.24527344 6.64554688 4.55304688 6.41609375 3.83984375 6.1796875 C2 5 2 5 0 0 Z " fill="#D1EDDF" transform="translate(337,844)"/>
<path d="M0 0 C1.32 0.66 2.64 1.32 4 2 C2.7636832 2.89422914 1.51028438 3.76487891 0.25 4.625 C-0.44609375 5.11226562 -1.1421875 5.59953125 -1.859375 6.1015625 C-4 7 -4 7 -6.265625 6.1484375 C-6.83796875 5.76945313 -7.4103125 5.39046875 -8 5 C-2.25 2 -2.25 2 0 2 C0 1.34 0 0.68 0 0 Z " fill="#256843" transform="translate(639,841)"/>
<path d="M0 0 C6.625 0.75 6.625 0.75 10 3 C10 3.99 10 4.98 10 6 C6.00499382 4.6302836 3.19990508 2.74277578 0 0 Z " fill="#296A46" transform="translate(331,840)"/>
<path d="M0 0 C2.31 0.66 4.62 1.32 7 2 C7.33 3.32 7.66 4.64 8 6 C8.66 6 9.32 6 10 6 C9.67 6.66 9.34 7.32 9 8 C7.49712782 6.85793642 5.99776716 5.71125043 4.5 4.5625 C3.6646875 3.92441406 2.829375 3.28632812 1.96875 2.62890625 C1.3190625 2.09136719 0.669375 1.55382812 0 1 C0 0.67 0 0.34 0 0 Z " fill="#2E6E4A" transform="translate(301,818)"/>
<path d="M0 0 C-2.12161334 2.12161334 -3.7733159 2.92986249 -6.5 4.125 C-7.2940625 4.47820313 -8.088125 4.83140625 -8.90625 5.1953125 C-11 6 -11 6 -13 6 C-13 5.34 -13 4.68 -13 4 C-4.75 -0.125 -4.75 -0.125 0 0 Z " fill="#DBF4E7" transform="translate(595,783)"/>
<path d="M0 0 C0 0.33 0 0.66 0 1 C-7.425 2.485 -7.425 2.485 -15 4 C-14.67 3.01 -14.34 2.02 -14 1 C-9.23692563 0.04738513 -4.8333472 -0.08333357 0 0 Z " fill="#276643" transform="translate(567,776)"/>
<path d="M0 0 C0.33 0.66 0.66 1.32 1 2 C-0.23734984 3.03613033 -1.49044637 4.05347802 -2.75 5.0625 C-3.79414062 5.91521484 -3.79414062 5.91521484 -4.859375 6.78515625 C-7 8 -7 8 -11 7 C-7.37 4.69 -3.74 2.38 0 0 Z " fill="#296543" transform="translate(637,759)"/>
<path d="M0 0 C0.66 0.99 1.32 1.98 2 3 C-1.51187196 5.40814077 -3.72656908 6.36629408 -8 6 C-5.51047079 3.33264727 -3.36591866 1.44253657 0 0 Z " fill="#24653F" transform="translate(395,685)"/>
<path d="M0 0 C-3.14591933 2.80045623 -5.067064 3.35261589 -9.25 3.1875 C-10.14203125 3.16042969 -11.0340625 3.13335938 -11.953125 3.10546875 C-12.96632813 3.05326172 -12.96632813 3.05326172 -14 3 C-9.2903051 -0.1397966 -5.55597581 -1.63411053 0 0 Z " fill="#2F6E4B" transform="translate(444,666)"/>
<path d="M0 0 C-0.33 0.99 -0.66 1.98 -1 3 C-4.96 2.67 -8.92 2.34 -13 2 C-13 1.67 -13 1.34 -13 1 C-8.62426048 0.40667939 -4.42471556 -0.13827236 0 0 Z " fill="#33734F" transform="translate(693,661)"/>
<path d="M0 0 C0.66 0.33 1.32 0.66 2 1 C3.70702735 1.06996014 5.41668003 1.08440154 7.125 1.0625 C8.03507813 1.05347656 8.94515625 1.04445313 9.8828125 1.03515625 C10.93082031 1.01775391 10.93082031 1.01775391 12 1 C12.33 1.66 12.66 2.32 13 3 C8.05 3 3.1 3 -2 3 C-2.33 2.34 -2.66 1.68 -3 1 C-2.01 0.67 -1.02 0.34 0 0 Z " fill="#145D34" transform="translate(517,634)"/>
<path d="M0 0 C0.66 0.66 1.32 1.32 2 2 C0.35 4.97 -1.3 7.94 -3 11 C-3.33 11 -3.66 11 -4 11 C-3.56179109 6.44262737 -3.14958831 3.42346555 0 0 Z " fill="#236540" transform="translate(680,617)"/>
<path d="M0 0 C2.39763185 2.39763185 2.34280586 3.33273498 2.625 6.625 C2.69976562 7.44226563 2.77453125 8.25953125 2.8515625 9.1015625 C2.90054687 9.72804688 2.94953125 10.35453125 3 11 C2.01 11 1.02 11 0 11 C-1.37432457 7.18243176 -0.67975039 3.92744671 0 0 Z " fill="#1B613B" transform="translate(393,533)"/>
<path d="M0 0 C5.445 1.485 5.445 1.485 11 3 C10.67 3.66 10.34 4.32 10 5 C6.7 4.34 3.4 3.68 0 3 C0 2.01 0 1.02 0 0 Z " fill="#175D37" transform="translate(382,804)"/>
<path d="M0 0 C5.75 1.875 5.75 1.875 8 3 C8 4.65 8 6.3 8 8 C6.85073734 7.04578192 5.70569459 6.08647955 4.5625 5.125 C3.92441406 4.59132813 3.28632813 4.05765625 2.62890625 3.5078125 C1 2 1 2 0 0 Z " fill="#31704E" transform="translate(276,796)"/>
<path d="M0 0 C0 0.99 0 1.98 0 3 C-3.0080208 6.0080208 -5.85463326 6.5289356 -10 7 C-3.24137931 0 -3.24137931 0 0 0 Z " fill="#276644" transform="translate(654,748)"/>
<path d="M0 0 C0.66 0 1.32 0 2 0 C1.33501617 4.38889325 -0.18757677 7.9811485 -2 12 C-3.12377697 8.69564916 -2.89554742 6.9493138 -1.5625 3.75 C-1.27503906 3.04359375 -0.98757813 2.3371875 -0.69140625 1.609375 C-0.46324219 1.07828125 -0.23507812 0.5471875 0 0 Z " fill="#286742" transform="translate(764,689)"/>
<path d="M0 0 C1.32 0.33 2.64 0.66 4 1 C-0.455 4.465 -0.455 4.465 -5 8 C-5.33 7.01 -5.66 6.02 -6 5 C-5.01 5 -4.02 5 -3 5 C-3 4.34 -3 3.68 -3 3 C-1.75 1.3125 -1.75 1.3125 0 0 Z " fill="#DCF5E8" transform="translate(564,588)"/>
<path d="M0 0 C0.99 0 1.98 0 3 0 C2.52797514 4.24822374 0.03344482 6.19989709 -3 9 C-2.01 6.03 -1.02 3.06 0 0 Z " fill="#2A6745" transform="translate(198,417)"/>
<path d="M0 0 C0.66 0.99 1.32 1.98 2 3 C-6.57142857 2.14285714 -6.57142857 2.14285714 -10 0 C-6.42030426 -1.23912545 -3.64409679 -0.95063395 0 0 Z " fill="#2F6C4C" transform="translate(445,883)"/>
<path d="M0 0 C7.38461538 -0.49230769 7.38461538 -0.49230769 10.5 2 C10.995 2.66 11.49 3.32 12 4 C7.6822542 3.49202991 3.96697886 2.80317221 0 1 C0 0.67 0 0.34 0 0 Z " fill="#306D4C" transform="translate(371,773)"/>
<path d="M0 0 C3.4375 0.8125 3.4375 0.8125 7 2 C7.33 2.99 7.66 3.98 8 5 C8.66 5 9.32 5 10 5 C9.67 5.99 9.34 6.98 9 8 C7.49712782 6.85793642 5.99776716 5.71125043 4.5 4.5625 C3.6646875 3.92441406 2.829375 3.28632812 1.96875 2.62890625 C1.3190625 2.09136719 0.669375 1.55382812 0 1 C0 0.67 0 0.34 0 0 Z " fill="#235F3E" transform="translate(352,667)"/>
<path d="M0 0 C1.32 0.33 2.64 0.66 4 1 C1.36 2.98 -1.28 4.96 -4 7 C-4.33 6.34 -4.66 5.68 -5 5 C-2.75 2.4375 -2.75 2.4375 0 0 Z " fill="#20603B" transform="translate(380,668)"/>
<path d="M0 0 C1.07765625 0.01804687 2.1553125 0.03609375 3.265625 0.0546875 C4.49539063 0.08949219 4.49539063 0.08949219 5.75 0.125 C5.75 0.455 5.75 0.785 5.75 1.125 C4.1103125 1.3415625 4.1103125 1.3415625 2.4375 1.5625 C-1.18122987 2.00788104 -1.18122987 2.00788104 -4.25 3.125 C-6.25875442 2.84928861 -8.26178687 2.52264263 -10.25 2.125 C-6.7733662 -0.01836161 -4.03770805 -0.08777626 0 0 Z " fill="#33734E" transform="translate(595.25,662.875)"/>
<path d="M0 0 C0.99 0.33 1.98 0.66 3 1 C-0.63 3.31 -4.26 5.62 -8 8 C-8 7.01 -8 6.02 -8 5 C-5 3 -5 3 -2 3 C-2 2.34 -2 1.68 -2 1 C-1.34 0.67 -0.68 0.34 0 0 Z " fill="#D3F0E0" transform="translate(761,631)"/>
<path d="M0 0 C0.66 0 1.32 0 2 0 C2.99 3.3 3.98 6.6 5 10 C2 9 2 9 0.8125 7.25 C-0.10819096 4.70039426 -0.14948718 2.69076919 0 0 Z " fill="#32714C" transform="translate(209,629)"/>
<path d="M0 0 C4.455 0.99 4.455 0.99 9 2 C7.68 2.99 6.36 3.98 5 5 C2.5 3.625 2.5 3.625 0 2 C0 1.34 0 0.68 0 0 Z " fill="#31744E" transform="translate(370,800)"/>
<path d="M0 0 C0 0.66 0 1.32 0 2 C-1.53125 3.2890625 -1.53125 3.2890625 -3.5 4.625 C-4.1496875 5.07101562 -4.799375 5.51703125 -5.46875 5.9765625 C-6.22671875 6.48316406 -6.22671875 6.48316406 -7 7 C-7.99 6.34 -8.98 5.68 -10 5 C-8.71186658 4.16121545 -7.41936744 3.32913217 -6.125 2.5 C-5.40570312 2.0359375 -4.68640625 1.571875 -3.9453125 1.09375 C-2 0 -2 0 0 0 Z " fill="#306F4A" transform="translate(626,767)"/>
<path d="M0 0 C1.32 0 2.64 0 4 0 C4.33 0.99 4.66 1.98 5 3 C3.35 4.32 1.7 5.64 0 7 C-0.38133299 5.0085944 -0.71325582 3.00720923 -1 1 C-0.67 0.67 -0.34 0.34 0 0 Z " fill="#DFF5E8" transform="translate(658,737)"/>
<path d="M0 0 C0.66 0 1.32 0 2 0 C2.69710731 1.28650706 3.38242876 2.57940665 4.0625 3.875 C4.63677734 4.95394531 4.63677734 4.95394531 5.22265625 6.0546875 C5.47917969 6.69664062 5.73570312 7.33859375 6 8 C5.67 8.66 5.34 9.32 5 10 C4.01 9.34 3.02 8.68 2 8 C1.8125 5.375 1.8125 5.375 2 3 C1.34 3 0.68 3 0 3 C0 2.01 0 1.02 0 0 Z " fill="#2A6745" transform="translate(223,663)"/>
<path d="M0 0 C0.33 0.66 0.66 1.32 1 2 C-0.38542316 5.62848922 -1.84351662 8.76527494 -4 12 C-4.66 12 -5.32 12 -6 12 C-4.43358249 7.69235185 -2.31663844 3.93828536 0 0 Z " fill="#DDF0E5" transform="translate(238,353)"/>
<path d="M0 0 C3.96 0 7.92 0 12 0 C12.33 0.99 12.66 1.98 13 3 C8.62065881 2.48041715 4.31196609 1.94324258 0 1 C0 0.67 0 0.34 0 0 Z " fill="#2C6845" transform="translate(421,880)"/>
<path d="M0 0 C1.62490954 -0.02698189 3.24994633 -0.04638757 4.875 -0.0625 C5.77992188 -0.07410156 6.68484375 -0.08570313 7.6171875 -0.09765625 C10 0 10 0 12 1 C12 1.66 12 2.32 12 3 C9.69 3 7.38 3 5 3 C5 2.67 5 2.34 5 2 C3.35 1.67 1.7 1.34 0 1 C0 0.67 0 0.34 0 0 Z " fill="#30734D" transform="translate(478,814)"/>
<path d="M0 0 C-2.35277269 2.72426311 -4.62496331 3.8141763 -8 5 C-8 4.01 -8 3.02 -8 2 C-4.77208445 -0.1519437 -3.71599191 -0.20086443 0 0 Z " fill="#185B33" transform="translate(408,655)"/>
<path d="M0 0 C0.99 0 1.98 0 3 0 C5.25 2.3125 5.25 2.3125 7 5 C6.67 5.99 6.34 6.98 6 8 C1.125 3.375 1.125 3.375 0 0 Z " fill="#20633D" transform="translate(324,638)"/>
<path d="M0 0 C1.32 0.33 2.64 0.66 4 1 C4 1.66 4 2.32 4 3 C4.66 3 5.32 3 6 3 C6 4.65 6 6.3 6 8 C1.125 3.375 1.125 3.375 0 0 Z " fill="#266741" transform="translate(313,623)"/>
<path d="M0 0 C0.66 0 1.32 0 2 0 C0.54955729 4.10958767 -1.51110752 7.43258745 -4 11 C-4.625 9.1875 -4.625 9.1875 -5 7 C-4.34 6.01 -3.68 5.02 -3 4 C-2.34 4 -1.68 4 -1 4 C-0.67 2.68 -0.34 1.36 0 0 Z " fill="#D8F4E6" transform="translate(582,568)"/>
<path d="M0 0 C2.10814567 4.21629134 2.17700355 6.39790775 2 11 C1.01 11.33 0.02 11.66 -1 12 C-0.67 8.04 -0.34 4.08 0 0 Z " fill="#2F6A49" transform="translate(600,519)"/>
<path d="M0 0 C0 3.44360632 -0.79591532 4.74795392 -2.5 7.6875 C-2.9640625 8.49574219 -3.428125 9.30398438 -3.90625 10.13671875 C-4.44765625 11.05904297 -4.44765625 11.05904297 -5 12 C-5.66 11.01 -6.32 10.02 -7 9 C-4.69 6.03 -2.38 3.06 0 0 Z " fill="#617C6C" transform="translate(240,348)"/>
<path d="M0 0 C0.33 0.66 0.66 1.32 1 2 C0.06421005 4.35981813 -0.93347808 6.69631264 -2 9 C-2.99 8.67 -3.98 8.34 -5 8 C-3.62845496 5.04590299 -2.01136276 2.55991624 0 0 Z " fill="#2B6B46" transform="translate(344,730)"/>
<path d="M0 0 C0.99 0 1.98 0 3 0 C3 0.99 3 1.98 3 3 C3.66 3 4.32 3 5 3 C4.67 4.65 4.34 6.3 4 8 C1.84622436 5.37801226 0.59927826 3.35595828 0 0 Z " fill="#266843" transform="translate(202,692)"/>
<path d="M0 0 C0.66 0.99 1.32 1.98 2 3 C1.3125 5.625 1.3125 5.625 0 8 C-0.99 8.33 -1.98 8.66 -3 9 C-2.01 6.03 -1.02 3.06 0 0 Z " fill="#D5ECDE" transform="translate(768,685)"/>
<path d="M0 0 C0.66 0 1.32 0 2 0 C4.32590854 3.63423209 4.16265833 6.77088331 4 11 C1.54176828 7.31265242 0.98757384 4.30300029 0 0 Z " fill="#CCEBDB" transform="translate(202,602)"/>
<path d="M0 0 C2.64752004 2.57784846 4.94432065 4.91648098 7 8 C6.01 8 5.02 8 4 8 C4 7.34 4 6.68 4 6 C3.01 5.67 2.02 5.34 1 5 C0.67 3.35 0.34 1.7 0 0 Z " fill="#2A6A46" transform="translate(413,577)"/>
<path d="M0 0 C0.99 0.33 1.98 0.66 3 1 C4.1875 4.5625 4.1875 4.5625 5 8 C4.01 8 3.02 8 2 8 C0.74335022 5.09399739 0 3.20395416 0 0 Z " fill="#145A34" transform="translate(291,572)"/>
<path d="M0 0 C3.4375 0.8125 3.4375 0.8125 7 2 C7.33 2.99 7.66 3.98 8 5 C4.5625 4.1875 4.5625 4.1875 1 3 C0.67 2.01 0.34 1.02 0 0 Z " fill="#1D633B" transform="translate(362,797)"/>
<path d="M0 0 C0.33 0.99 0.66 1.98 1 3 C-0.40445835 5.2636564 -2.1967913 7.0208685 -4 9 C-4.66 8.67 -5.32 8.34 -6 8 C-4.02 5.36 -2.04 2.72 0 0 Z " fill="#D3EEDE" transform="translate(724,764)"/>
<path d="M0 0 C2.1875 -0.3125 2.1875 -0.3125 5 0 C7.8125 2.5 7.8125 2.5 10 5 C9.67 5.66 9.34 6.32 9 7 C7.4972763 6.02501855 5.99788037 5.04490611 4.5 4.0625 C3.6646875 3.51722656 2.829375 2.97195313 1.96875 2.41015625 C1.3190625 1.94480469 0.669375 1.47945312 0 1 C0 0.67 0 0.34 0 0 Z " fill="#D1EDDD" transform="translate(308,766)"/>
<path d="M0 0 C0.33 0.66 0.66 1.32 1 2 C-0.61000397 5.13950774 -2.38499232 7.63404067 -5 10 C-5.66 9.67 -6.32 9.34 -7 9 C-4.69 6.03 -2.38 3.06 0 0 Z " fill="#2C6844" transform="translate(581,573)"/>
<path d="M0 0 C0.66 0.33 1.32 0.66 2 1 C1.01 4.3 0.02 7.6 -1 11 C-1.33 11 -1.66 11 -2 11 C-2 8.69 -2 6.38 -2 4 C-1.34 4 -0.68 4 0 4 C0 2.68 0 1.36 0 0 Z " fill="#266442" transform="translate(211,403)"/>
<path d="M0 0 C0.33 0.99 0.66 1.98 1 3 C2.65 3.33 4.3 3.66 6 4 C6 4.66 6 5.32 6 6 C0.25 4.125 0.25 4.125 -2 3 C-2 2.34 -2 1.68 -2 1 C-1.34 0.67 -0.68 0.34 0 0 Z " fill="#306B4C" transform="translate(353,850)"/>
<path d="M0 0 C0.99 0.33 1.98 0.66 3 1 C1.875 2.5 1.875 2.5 0 4 C-3.1875 4.1875 -3.1875 4.1875 -6 4 C-4.03617993 2.49440461 -2.21736634 1.10868317 0 0 Z " fill="#2F6E4A" transform="translate(614,773)"/>
<path d="M0 0 C1.65 0 3.3 0 5 0 C2.22719294 3.08089673 -0.06326356 4.68775452 -4 6 C-3.67 5.01 -3.34 4.02 -3 3 C-2.01 3 -1.02 3 0 3 C0 2.01 0 1.02 0 0 Z " fill="#D3EFE0" transform="translate(642,752)"/>
<path d="M0 0 C2.72426311 2.35277269 3.8141763 4.62496331 5 8 C4.01 8 3.02 8 2 8 C2 6.68 2 5.36 2 4 C1.34 4 0.68 4 0 4 C0 2.68 0 1.36 0 0 Z " fill="#2A6A45" transform="translate(236,686)"/>
<path d="M0 0 C0.33 0.66 0.66 1.32 1 2 C-2.81756824 3.37432457 -6.07255329 2.67975039 -10 2 C-6.5980513 -0.09350689 -3.94727588 -0.17942163 0 0 Z " fill="#31714C" transform="translate(704,659)"/>
<path d="M0 0 C-1 2 -2 4 -3 6 C-3.99 5.67 -4.98 5.34 -6 5 C-6 3 -6 3 -4.6875 1.375 C-3 0 -3 0 0 0 Z " fill="#1C5B36" transform="translate(667,639)"/>
<path d="M0 0 C-0.75 1.9375 -0.75 1.9375 -2 4 C-4 4.875 -4 4.875 -6 5 C-6.66 4.34 -7.32 3.68 -8 3 C-2.25 0 -2.25 0 0 0 Z " fill="#2E6B4A" transform="translate(555,599)"/>
<path d="M0 0 C0 0.99 0 1.98 0 3 C-1.98 3.99 -1.98 3.99 -4 5 C-4.66 4.34 -5.32 3.68 -6 3 C-4.02 2.01 -2.04 1.02 0 0 Z " fill="#195F38" transform="translate(564,593)"/>
<path d="M0 0 C4.31392226 0.4793247 6.16569547 1.7457985 9 5 C6.03 4.505 6.03 4.505 3 4 C2.67 3.01 2.34 2.02 2 1 C1.34 0.67 0.68 0.34 0 0 Z " fill="#226340" transform="translate(424,591)"/>
<path d="M0 0 C1.9451 2.91765 2.45276317 4.62537285 3 8 C1.68 7.67 0.36 7.34 -1 7 C-0.67 4.69 -0.34 2.38 0 0 Z " fill="#347450" transform="translate(396,542)"/>
<path d="M0 0 C0.66 0 1.32 0 2 0 C3.2077558 3.62326739 2.54311128 4.64146369 1 8 C0.34 8 -0.32 8 -1 8 C-0.67 5.36 -0.34 2.72 0 0 Z " fill="#2F6C4A" transform="translate(597,535)"/>
<path d="M0 0 C2.64 0 5.28 0 8 0 C5.4345406 2.5654594 3.52313332 2.54046087 0 3 C0 2.01 0 1.02 0 0 Z " fill="#175D35" transform="translate(552,879)"/>
<path d="M0 0 C2.375 -0.125 2.375 -0.125 5 0 C5.66 0.66 6.32 1.32 7 2 C6.67 2.99 6.34 3.98 6 5 C3.98079663 3.69593116 1.98075027 2.36176581 0 1 C0 0.67 0 0.34 0 0 Z " fill="#2D6A49" transform="translate(322,834)"/>
<path d="M0 0 C0.33 0.99 0.66 1.98 1 3 C-0.65 4.32 -2.3 5.64 -4 7 C-4 5.68 -4 4.36 -4 3 C-3.01 3 -2.02 3 -1 3 C-0.67 2.01 -0.34 1.02 0 0 Z " fill="#1F663E" transform="translate(675,814)"/>
<path d="M0 0 C1.32 0.33 2.64 0.66 4 1 C4 2.32 4 3.64 4 5 C4.66 5.33 5.32 5.66 6 6 C5.01 6 4.02 6 3 6 C0 2.66666667 0 2.66666667 0 0 Z " fill="#276742" transform="translate(239,753)"/>
<path d="M0 0 C0.66 0 1.32 0 2 0 C2 0.66 2 1.32 2 2 C3.32 2.66 4.64 3.32 6 4 C5.67 5.32 5.34 6.64 5 8 C4.16382818 6.8562364 3.33113541 5.70992861 2.5 4.5625 C2.0359375 3.92441406 1.571875 3.28632812 1.09375 2.62890625 C0 1 0 1 0 0 Z " fill="#D2EEE0" transform="translate(247,702)"/>
<path d="M0 0 C0.66 0 1.32 0 2 0 C0.125 5.75 0.125 5.75 -1 8 C-1.66 8 -2.32 8 -3 8 C-1.125 1.125 -1.125 1.125 0 0 Z " fill="#1B5A37" transform="translate(759,701)"/>
<path d="M0 0 C-0.99 1.485 -0.99 1.485 -2 3 C-5 2 -5 2 -8 0 C-4.94736336 -0.98120464 -3.05263664 -0.98120464 0 0 Z " fill="#276845" transform="translate(721,655)"/>
<path d="M0 0 C2.97 0.33 5.94 0.66 9 1 C5.00889681 2.9955516 3.30013434 3.19546065 -1 3 C-0.67 2.01 -0.34 1.02 0 0 Z " fill="#1C643A" transform="translate(612,642)"/>
<path d="M0 0 C0.6875 1.8125 0.6875 1.8125 1 4 C-0.4375 5.75 -0.4375 5.75 -2 7 C-2.66 6.67 -3.32 6.34 -4 6 C-2.68 4.02 -1.36 2.04 0 0 Z M-6 7 C-5.01 7.495 -5.01 7.495 -4 8 C-4.99 8.495 -4.99 8.495 -6 9 C-6 8.34 -6 7.68 -6 7 Z " fill="#156739" transform="translate(776,622)"/>
<path d="M0 0 C0.66 0.66 1.32 1.32 2 2 C1.96712417 4.72869407 1.43602229 7.2966618 1 10 C0.67 10 0.34 10 0 10 C-0.19412181 8.52168779 -0.38012131 7.04230684 -0.5625 5.5625 C-0.66691406 4.73878906 -0.77132812 3.91507813 -0.87890625 3.06640625 C-0.91886719 2.38449219 -0.95882812 1.70257812 -1 1 C-0.67 0.67 -0.34 0.34 0 0 Z " fill="#2A6E45" transform="translate(177,610)"/>
<path d="M0 0 C0.99 0 1.98 0 3 0 C2.67 2.97 2.34 5.94 2 9 C1.67 9 1.34 9 1 9 C0.67 6.03 0.34 3.06 0 0 Z " fill="#2B6E46" transform="translate(286,552)"/>
</svg>
